<?xml version="1.0" encoding="UTF-8" standalone="no"?>
<!-- Created with Inkscape (http://www.inkscape.org/) -->

<svg
   xmlns:svg="http://www.w3.org/2000/svg"
   xmlns="http://www.w3.org/2000/svg"
   version="1.1"
   width="744.09448"
   height="1052.3622"
   id="svg2">
  <defs
     id="defs4" />
  <g
     id="layer1">
    <path
       d="m 219.99999,293.79074 a 44.285713,44.285713 0 1 1 -88.57142,0 44.285713,44.285713 0 1 1 88.57142,0 z"
       id="path2816"
       style="fill:none;stroke:#ff0000;stroke-width:10;stroke-linejoin:round;stroke-miterlimit:4;stroke-opacity:1;stroke-dasharray:none" />
    <path
       d="m 219.99999,293.79074 a 44.285713,44.285713 0 1 1 -88.57142,0 44.285713,44.285713 0 1 1 88.57142,0 z"
       transform="translate(210,-5.7142671)"
       id="path2816-5"
       style="fill:none;stroke:#ff0000;stroke-width:10;stroke-linejoin:round;stroke-miterlimit:4;stroke-opacity:1;stroke-dasharray:none" />
    <path
       d="m 219.99999,293.79074 a 44.285713,44.285713 0 1 1 -88.57142,0 44.285713,44.285713 0 1 1 88.57142,0 z"
       transform="translate(91.428573,232.85714)"
       id="path2816-0"
       style="fill:none;stroke:#ff0000;stroke-width:10;stroke-linejoin:round;stroke-miterlimit:4;stroke-opacity:1;stroke-dasharray:none" />
    <path
       d="M 244.76269,468.57681 192.5835,345.61887"
       id="path3646"
       style="fill:none;stroke:#ff0000;stroke-width:6;stroke-linecap:butt;stroke-linejoin:miter;stroke-miterlimit:4;stroke-opacity:1;stroke-dasharray:none" />
    <path
       d="M 306.11787,468.23607 358.29706,345.27813"
       id="path3646-0"
       style="fill:none;stroke:#ff0000;stroke-width:6;stroke-linecap:butt;stroke-linejoin:miter;stroke-miterlimit:4;stroke-opacity:1;stroke-dasharray:none" />
    <path
       d="m 219.99999,293.79074 a 44.285713,44.285713 0 1 1 -88.57142,0 44.285713,44.285713 0 1 1 88.57142,0 z"
       transform="translate(-92.857136,234.28573)"
       id="path2816-3"
       style="fill:none;stroke:#ff0000;stroke-width:10;stroke-linejoin:round;stroke-miterlimit:4;stroke-opacity:1;stroke-dasharray:none" />
    <path
       d="M 145.0367,706.97787 92.857504,584.01993"
       id="path3646-06"
       style="fill:none;stroke:#ff0000;stroke-width:6;stroke-linecap:butt;stroke-linejoin:miter;stroke-miterlimit:4;stroke-opacity:1;stroke-dasharray:none" />
    <path
       d="M 206.39187,706.63713 258.57106,583.67919"
       id="path3646-0-5"
       style="fill:none;stroke:#ff0000;stroke-width:6;stroke-linecap:butt;stroke-linejoin:miter;stroke-miterlimit:4;stroke-opacity:1;stroke-dasharray:none" />
    <path
       d="m 219.99999,293.79074 a 44.285713,44.285713 0 1 1 -88.57142,0 44.285713,44.285713 0 1 1 88.57142,0 z"
       transform="translate(-2.8571359,471.42859)"
       id="path2816-0-7"
       style="fill:none;stroke:#ff0000;stroke-width:10;stroke-linejoin:round;stroke-miterlimit:4;stroke-opacity:1;stroke-dasharray:none" />
    <path
       d="m 231.42857,288.07647 98.57143,0"
       id="path3799"
       style="fill:none;stroke:#ff0000;stroke-width:6;stroke-linecap:butt;stroke-linejoin:miter;stroke-miterlimit:4;stroke-opacity:1;stroke-dasharray:none" />
    <path
       d="m 137.03747,528.07647 71.63935,0"
       id="path3799-6"
       style="fill:none;stroke:#ff0000;stroke-width:5.11506939;stroke-linecap:butt;stroke-linejoin:miter;stroke-miterlimit:4;stroke-opacity:1;stroke-dasharray:none" />
  </g>
</svg>
