<?xml version="1.0" encoding="utf-8"?>
<!-- Generator: Adobe Illustrator 12.0.1, SVG Export Plug-In . SVG Version: 6.00 Build 51448)  -->
<!DOCTYPE svg PUBLIC "-//W3C//DTD SVG 1.1//EN" "http://www.w3.org/Graphics/SVG/1.1/DTD/svg11.dtd" [
	<!ENTITY ns_svg "http://www.w3.org/2000/svg">
	<!ENTITY ns_xlink "http://www.w3.org/1999/xlink">
	<!ENTITY st0 "fill:#FFE390;stroke:#E4BC96;stroke-width:0.875;">
	<!ENTITY st1 "fill:#E6E6E6;">
	<!ENTITY st2 "fill:#B28037;">
	<!ENTITY st3 "fill:none;stroke:#EF8A22;stroke-width:7;stroke-linecap:square;">
	<!ENTITY st4 "fill:#D89A47;">
]>
<svg  version="1.1" id="Layer_1" xmlns="&ns_svg;" xmlns:xlink="&ns_xlink;" width="231" height="147" viewBox="0 0 231 147"
	 style="overflow:visible;enable-background:new 0 0 231 147;" xml:space="preserve">
<g>
	<rect style="&st1;" width="231" height="147"/>
	<g>
		<polyline style="&st3;" points="210,21 7,21 7,7 224,7 224,112 91,112 91,98 210,98 		"/>
		<polyline style="&st3;" points="21,49 140,49 140,35 7,35 7,140 224,140 224,126 21,126 		"/>
		<polyline style="&st3;" points="7,112 21,112 21,63 35,63 35,112 49,112 49,63 63,63 63,112 77,112 77,63 154,63 		"/>
		<polyline style="&st3;" points="224,35 210,35 210,84 196,84 196,35 182,35 182,84 168,84 168,35 154,35 154,84 77,84 		"/>
	</g>
	<rect x="102.812" y="56.875" style="&st0;" width="25.375" height="12.25"/>
	<g>
		<rect x="106.312" y="59.851" style="&st4;" width="6.3" height="6.3"/>
		<rect x="118.387" y="59.851" style="&st4;" width="6.301" height="6.3"/>
		<rect x="112.612" y="62.084" style="&st2;" width="5.774" height="1.833"/>
	</g>
</g>
</svg>
