<?xml version="1.0" standalone="yes"?>

<svg version="1.1" viewBox="0.0 0.0 960.0 720.0" fill="none" stroke="none" stroke-linecap="square" stroke-miterlimit="10" xmlns="http://www.w3.org/2000/svg" xmlns:xlink="http://www.w3.org/1999/xlink"><path d="M100.538055 602.17255L114.585304 534.07806" fill-rule="nonzero" stroke="#073763" stroke-width="2.0" stroke-linejoin="round" stroke-linecap="butt"></path><path d="M122.1601 516.7657L207.57742 522.18304" fill-rule="nonzero" stroke="#073763" stroke-width="2.0" stroke-linejoin="round" stroke-linecap="butt"></path><path d="M222.70079 530.8208L292.9685 571.89166" fill-rule="nonzero" stroke="#073763" stroke-width="2.0" stroke-linejoin="round" stroke-linecap="butt"></path><path d="M86.05249 518.393L86.05249 518.393C86.05249 500.53723 100.52744 486.0623 118.3832 486.0623L118.3832 486.0623C126.95784 486.0623 135.18129 489.46857 141.24446 495.53174C147.30765 501.5949 150.71391 509.81836 150.71391 518.393L150.71391 518.393C150.71391 536.2488 136.23895 550.7237 118.3832 550.7237L118.3832 550.7237C100.52744 550.7237 86.05249 536.2488 86.05249 518.393Z" fill-rule="nonzero" fill="#cfe2f3" stroke="#073763" stroke-width="2.0" stroke-linejoin="round" stroke-linecap="butt"></path><path d="M70.70079 606.5906L70.70079 606.5906C70.70079 588.7348 85.175735 574.2598 103.031494 574.2598L103.031494 574.2598C111.60613 574.2598 119.829575 577.6661 125.89276 583.7293C131.95595 589.7925 135.36221 598.0159 135.36221 606.5906L135.36221 606.5906C135.36221 624.4463 120.88725 638.92126 103.031494 638.92126L103.031494 638.92126C85.175735 638.92126 70.70079 624.4463 70.70079 606.5906Z" fill-rule="nonzero" fill="#cfe2f3" stroke="#073763" stroke-width="2.0" stroke-linejoin="round" stroke-linecap="butt"></path><path d="M263.77954 577.309L263.77954 577.309C263.77954 559.45325 278.2545 544.97833 296.11023 544.97833L296.11023 544.97833C304.68488 544.97833 312.90833 548.3846 318.9715 554.44775C325.0347 560.5109 328.44095 568.7344 328.44095 577.309L328.44095 577.309C328.44095 595.1648 313.966 609.6397 296.11023 609.6397L296.11023 609.6397C278.2545 609.6397 263.77954 595.1648 263.77954 577.309Z" fill-rule="nonzero" fill="#cfe2f3" stroke="#073763" stroke-width="2.0" stroke-linejoin="round" stroke-linecap="butt"></path><path d="M211.88977 520.0098L291.88977 474.59247" fill-rule="nonzero" stroke="#073763" stroke-width="2.0" stroke-linejoin="round" stroke-linecap="butt"></path><path d="M263.77954 474.48294L263.77954 474.48294C263.77954 456.6272 278.2545 442.15222 296.11023 442.15222L296.11023 442.15222C304.68488 442.15222 312.90833 445.5585 318.9715 451.62167C325.0347 457.68488 328.44095 465.9083 328.44095 474.48294L328.44095 474.48294C328.44095 492.33868 313.966 506.81366 296.11023 506.81366L296.11023 506.81366C278.2545 506.81366 263.77954 492.33868 263.77954 474.48294Z" fill-rule="nonzero" fill="#cfe2f3" stroke="#073763" stroke-width="2.0" stroke-linejoin="round" stroke-linecap="butt"></path><path d="M174.26772 518.393L174.26772 518.393C174.26772 500.53723 188.74266 486.0623 206.59842 486.0623L206.59842 486.0623C215.17307 486.0623 223.3965 489.46857 229.45969 495.53174C235.52287 501.5949 238.92914 509.81836 238.92914 518.393L238.92914 518.393C238.92914 536.2488 224.45418 550.7237 206.59842 550.7237L206.59842 550.7237C188.74266 550.7237 174.26772 536.2488 174.26772 518.393Z" fill-rule="nonzero" fill="#cfe2f3" stroke="#073763" stroke-width="2.0" stroke-linejoin="round" stroke-linecap="butt"></path><path d="M151.5522 669.42126L151.5522 655.8275L156.6772 655.8275Q158.03658 655.8275 158.75533 655.9525Q159.75533 656.1244 160.4272 656.59314Q161.09908 657.0619 161.51314 657.90564Q161.9272 658.7494 161.9272 659.7494Q161.9272 661.48376 160.82564 662.6869Q159.72408 663.89 156.83345 663.89L153.34908 663.89L153.34908 669.42126L151.5522 669.42126ZM153.34908 662.28064L156.8647 662.28064Q158.6147 662.28064 159.34126 661.6322Q160.06783 660.98376 160.06783 659.8119Q160.06783 658.9525 159.63814 658.34314Q159.20845 657.73376 158.50533 657.54626Q158.0522 657.42126 156.83345 657.42126L153.34908 657.42126L153.34908 662.28064ZM163.7397 669.42126L163.7397 655.8275L165.41158 655.8275L165.41158 669.42126L163.7397 669.42126ZM174.3647 668.2025Q173.4272 668.9994 172.56783 669.3197Q171.70845 669.64 170.72408 669.64Q169.1147 669.64 168.2397 668.85095Q167.3647 668.0619 167.3647 666.8275Q167.3647 666.09314 167.69283 665.4994Q168.02095 664.90564 168.5522 664.54626Q169.08345 664.1869 169.75533 663.9994Q170.25533 663.85876 171.2397 663.7494Q173.27095 663.4994 174.22408 663.17126Q174.22408 662.8275 174.22408 662.73376Q174.22408 661.71814 173.75533 661.29626Q173.1147 660.73376 171.84908 660.73376Q170.6772 660.73376 170.1147 661.14Q169.5522 661.54626 169.28658 662.60876L167.64595 662.3744Q167.88033 661.3275 168.38814 660.6869Q168.89595 660.04626 169.85689 659.6947Q170.81783 659.34314 172.09908 659.34314Q173.3647 659.34314 174.14595 659.64Q174.9272 659.9369 175.3022 660.39Q175.6772 660.84314 175.81783 661.53064Q175.91158 661.9525 175.91158 663.0619L175.91158 665.29626Q175.91158 667.6244 176.01314 668.2416Q176.1147 668.85876 176.44283 669.42126L174.69283 669.42126Q174.4272 668.90564 174.3647 668.2025ZM174.22408 664.48376Q173.31783 664.84314 171.4897 665.10876Q170.45845 665.2494 170.03658 665.4369Q169.6147 665.6244 169.38033 665.98376Q169.14595 666.34314 169.14595 666.78064Q169.14595 667.4525 169.65376 667.8978Q170.16158 668.34314 171.13033 668.34314Q172.09908 668.34314 172.84908 667.91345Q173.59908 667.48376 173.95845 666.765Q174.22408 666.1869 174.22408 665.09314L174.22408 664.48376ZM184.7397 665.8119L186.38033 666.03064Q186.1147 667.71814 185.00533 668.6791Q183.89595 669.64 182.27095 669.64Q180.25533 669.64 179.02876 668.3197Q177.8022 666.9994 177.8022 664.53064Q177.8022 662.9369 178.32564 661.7416Q178.84908 660.54626 179.93501 659.9447Q181.02095 659.34314 182.28658 659.34314Q183.89595 659.34314 184.91158 660.15564Q185.9272 660.96814 186.22408 662.46814L184.59908 662.71814Q184.3647 661.71814 183.77095 661.21814Q183.1772 660.71814 182.34908 660.71814Q181.08345 660.71814 180.29439 661.6244Q179.50533 662.53064 179.50533 664.48376Q179.50533 666.46814 180.27095 667.3666Q181.03658 668.265 182.25533 668.265Q183.2397 668.265 183.89595 667.66345Q184.5522 667.0619 184.7397 665.8119ZM194.38033 666.2494L196.09908 666.46814Q195.69283 667.96814 194.59126 668.8041Q193.4897 669.64 191.77095 669.64Q189.6147 669.64 188.34908 668.3119Q187.08345 666.98376 187.08345 664.5775Q187.08345 662.09314 188.35689 660.71814Q189.63033 659.34314 191.6772 659.34314Q193.66158 659.34314 194.91158 660.6869Q196.16158 662.03064 196.16158 664.48376Q196.16158 664.6244 196.14595 664.92126L188.8022 664.92126Q188.89595 666.54626 189.72408 667.40564Q190.5522 668.265 191.78658 668.265Q192.69283 668.265 193.34126 667.78845Q193.9897 667.3119 194.38033 666.2494ZM188.89595 663.54626L194.39595 663.54626Q194.28658 662.3119 193.77095 661.6869Q192.97408 660.71814 191.69283 660.71814Q190.5522 660.71814 189.76314 661.4916Q188.97408 662.265 188.89595 663.54626ZM203.31783 669.42126L203.31783 655.8275L205.1147 655.8275L205.1147 667.8119L211.81783 667.8119L211.81783 669.42126L203.31783 669.42126ZM219.9897 668.2025Q219.0522 668.9994 218.19283 669.3197Q217.33345 669.64 216.34908 669.64Q214.7397 669.64 213.8647 668.85095Q212.9897 668.0619 212.9897 666.8275Q212.9897 666.09314 213.31783 665.4994Q213.64595 664.90564 214.1772 664.54626Q214.70845 664.1869 215.38033 663.9994Q215.88033 663.85876 216.8647 663.7494Q218.89595 663.4994 219.84908 663.17126Q219.84908 662.8275 219.84908 662.73376Q219.84908 661.71814 219.38033 661.29626Q218.7397 660.73376 217.47408 660.73376Q216.3022 660.73376 215.7397 661.14Q215.1772 661.54626 214.91158 662.60876L213.27095 662.3744Q213.50533 661.3275 214.01314 660.6869Q214.52095 660.04626 215.48189 659.6947Q216.44283 659.34314 217.72408 659.34314Q218.9897 659.34314 219.77095 659.64Q220.5522 659.9369 220.9272 660.39Q221.3022 660.84314 221.44283 661.53064Q221.53658 661.9525 221.53658 663.0619L221.53658 665.29626Q221.53658 667.6244 221.63814 668.2416Q221.7397 668.85876 222.06783 669.42126L220.31783 669.42126Q220.0522 668.90564 219.9897 668.2025ZM219.84908 664.48376Q218.94283 664.84314 217.1147 665.10876Q216.08345 665.2494 215.66158 665.4369Q215.2397 665.6244 215.00533 665.98376Q214.77095 666.34314 214.77095 666.78064Q214.77095 667.4525 215.27876 667.8978Q215.78658 668.34314 216.75533 668.34314Q217.72408 668.34314 218.47408 667.91345Q219.22408 667.48376 219.58345 666.765Q219.84908 666.1869 219.84908 665.09314L219.84908 664.48376ZM223.84908 673.21814L223.6772 671.65564Q224.22408 671.79626 224.63033 671.79626Q225.1772 671.79626 225.51314 671.60876Q225.84908 671.42126 226.06783 671.09314Q226.22408 670.84314 226.56783 669.84314Q226.6147 669.7025 226.72408 669.4369L222.9897 659.5619L224.78658 659.5619L226.83345 665.28064Q227.2397 666.35876 227.5522 667.5619Q227.83345 666.40564 228.2397 665.3119L230.33345 659.5619L232.00533 659.5619L228.25533 669.59314Q227.66158 671.21814 227.31783 671.8275Q226.88033 672.65564 226.3022 673.03845Q225.72408 673.42126 224.9272 673.42126Q224.44283 673.42126 223.84908 673.21814ZM240.00533 666.2494L241.72408 666.46814Q241.31783 667.96814 240.21626 668.8041Q239.1147 669.64 237.39595 669.64Q235.2397 669.64 233.97408 668.3119Q232.70845 666.98376 232.70845 664.5775Q232.70845 662.09314 233.98189 660.71814Q235.25533 659.34314 237.3022 659.34314Q239.28658 659.34314 240.53658 660.6869Q241.78658 662.03064 241.78658 664.48376Q241.78658 664.6244 241.77095 664.92126L234.4272 664.92126Q234.52095 666.54626 235.34908 667.40564Q236.1772 668.265 237.41158 668.265Q238.31783 668.265 238.96626 667.78845Q239.6147 667.3119 240.00533 666.2494ZM234.52095 663.54626L240.02095 663.54626Q239.91158 662.3119 239.39595 661.6869Q238.59908 660.71814 237.31783 660.71814Q236.1772 660.71814 235.38814 661.4916Q234.59908 662.265 234.52095 663.54626ZM243.63033 669.42126L243.63033 659.5619L245.13033 659.5619L245.13033 661.0619Q245.70845 660.015 246.19283 659.6791Q246.6772 659.34314 247.27095 659.34314Q248.1147 659.34314 248.9897 659.89L248.41158 661.4369Q247.8022 661.0775 247.1772 661.0775Q246.63033 661.0775 246.20064 661.40564Q245.77095 661.73376 245.58345 662.3119Q245.3022 663.2025 245.3022 664.265L245.3022 669.42126L243.63033 669.42126Z" fill-rule="nonzero" fill="#000000"></path><path d="M142.70341 304.86615L220.53018 276.77167" fill-rule="nonzero" stroke="#073763" stroke-width="2.0" stroke-linejoin="round" stroke-linecap="butt"></path><path d="M135.13387 203.2441L228.11023 215.1181" fill-rule="nonzero" stroke="#073763" stroke-width="2.0" stroke-linejoin="round" stroke-linecap="butt"></path><path d="M137.29659 120.0L218.36746 153.51181" fill-rule="nonzero" stroke="#073763" stroke-width="2.0" stroke-linejoin="round" stroke-linecap="butt"></path><path d="M291.8924 211.8924L374.0656 211.8924" fill-rule="nonzero" stroke="#073763" stroke-width="2.0" stroke-linejoin="round" stroke-linecap="butt"></path><path d="M193.07324 113.98626L313.01025 113.98626L313.01025 302.4272L193.07324 302.4272Z" fill-rule="nonzero" fill="#cfe2f3" stroke="#073763" stroke-width="2.0" stroke-linejoin="round" stroke-linecap="butt"></path><path d="M222.44824 183.20502L222.44824 169.61127L231.62012 169.61127L231.62012 171.20502L224.24512 171.20502L224.24512 175.42377L230.62012 175.42377L230.62012 177.03314L224.24512 177.03314L224.24512 183.20502L222.44824 183.20502ZM240.27637 180.03314L241.99512 180.25189Q241.58887 181.75189 240.4873 182.58783Q239.38574 183.42377 237.66699 183.42377Q235.51074 183.42377 234.24512 182.09564Q232.97949 180.76752 232.97949 178.36127Q232.97949 175.87689 234.25293 174.50189Q235.52637 173.12689 237.57324 173.12689Q239.55762 173.12689 240.80762 174.47064Q242.05762 175.81439 242.05762 178.26752Q242.05762 178.40814 242.04199 178.70502L234.69824 178.70502Q234.79199 180.33002 235.62012 181.18939Q236.44824 182.04877 237.68262 182.04877Q238.58887 182.04877 239.2373 181.5722Q239.88574 181.09564 240.27637 180.03314ZM234.79199 177.33002L240.29199 177.33002Q240.18262 176.09564 239.66699 175.47064Q238.87012 174.50189 237.58887 174.50189Q236.44824 174.50189 235.65918 175.27533Q234.87012 176.04877 234.79199 177.33002ZM250.33887 181.98627Q249.40137 182.78314 248.54199 183.10345Q247.68262 183.42377 246.69824 183.42377Q245.08887 183.42377 244.21387 182.6347Q243.33887 181.84564 243.33887 180.61127Q243.33887 179.87689 243.66699 179.28314Q243.99512 178.68939 244.52637 178.33002Q245.05762 177.97064 245.72949 177.78314Q246.22949 177.64252 247.21387 177.53314Q249.24512 177.28314 250.19824 176.95502Q250.19824 176.61127 250.19824 176.51752Q250.19824 175.50189 249.72949 175.08002Q249.08887 174.51752 247.82324 174.51752Q246.65137 174.51752 246.08887 174.92377Q245.52637 175.33002 245.26074 176.39252L243.62012 176.15814Q243.85449 175.11127 244.3623 174.47064Q244.87012 173.83002 245.83105 173.47845Q246.79199 173.12689 248.07324 173.12689Q249.33887 173.12689 250.12012 173.42377Q250.90137 173.72064 251.27637 174.17377Q251.65137 174.62689 251.79199 175.31439Q251.88574 175.73627 251.88574 176.84564L251.88574 179.08002Q251.88574 181.40814 251.9873 182.02533Q252.08887 182.64252 252.41699 183.20502L250.66699 183.20502Q250.40137 182.68939 250.33887 181.98627ZM250.19824 178.26752Q249.29199 178.62689 247.46387 178.89252Q246.43262 179.03314 246.01074 179.22064Q245.58887 179.40814 245.35449 179.76752Q245.12012 180.12689 245.12012 180.56439Q245.12012 181.23627 245.62793 181.68158Q246.13574 182.12689 247.10449 182.12689Q248.07324 182.12689 248.82324 181.6972Q249.57324 181.26752 249.93262 180.54877Q250.19824 179.97064 250.19824 178.87689L250.19824 178.26752ZM257.93262 181.70502L258.167 183.18939Q257.46387 183.33002 256.90137 183.33002Q255.99512 183.33002 255.49512 183.04095Q254.99512 182.75189 254.79199 182.29095Q254.58887 181.83002 254.58887 180.31439L254.58887 174.65814L253.35449 174.65814L253.35449 173.34564L254.58887 173.34564L254.58887 170.90814L256.24512 169.90814L256.24512 173.34564L257.93262 173.34564L257.93262 174.65814L256.24512 174.65814L256.24512 180.40814Q256.24512 181.12689 256.33105 181.33002Q256.417 181.53314 256.62012 181.65814Q256.82324 181.78314 257.19824 181.78314Q257.46387 181.78314 257.93262 181.70502ZM265.917 183.20502L265.917 181.75189Q264.77637 183.42377 262.792 183.42377Q261.93262 183.42377 261.1748 183.08783Q260.417 182.75189 260.0498 182.25189Q259.68262 181.75189 259.52637 181.01752Q259.43262 180.51752 259.43262 179.45502L259.43262 173.34564L261.1045 173.34564L261.1045 178.81439Q261.1045 180.12689 261.19824 180.58002Q261.3545 181.23627 261.87012 181.61127Q262.38574 181.98627 263.13574 181.98627Q263.88574 181.98627 264.542 181.60345Q265.19824 181.22064 265.47168 180.55658Q265.74512 179.89252 265.74512 178.62689L265.74512 173.34564L267.417 173.34564L267.417 183.20502L265.917 183.20502ZM269.82324 183.20502L269.82324 173.34564L271.32324 173.34564L271.32324 174.84564Q271.90137 173.79877 272.38574 173.46283Q272.87012 173.12689 273.46387 173.12689Q274.30762 173.12689 275.18262 173.67377L274.6045 175.22064Q273.99512 174.86127 273.37012 174.86127Q272.82324 174.86127 272.39355 175.18939Q271.96387 175.51752 271.77637 176.09564Q271.49512 176.98627 271.49512 178.04877L271.49512 183.20502L269.82324 183.20502ZM282.80762 180.03314L284.52637 180.25189Q284.12012 181.75189 283.01855 182.58783Q281.917 183.42377 280.19824 183.42377Q278.042 183.42377 276.77637 182.09564Q275.51074 180.76752 275.51074 178.36127Q275.51074 175.87689 276.78418 174.50189Q278.05762 173.12689 280.1045 173.12689Q282.08887 173.12689 283.33887 174.47064Q284.58887 175.81439 284.58887 178.26752Q284.58887 178.40814 284.57324 178.70502L277.2295 178.70502Q277.32324 180.33002 278.15137 181.18939Q278.9795 182.04877 280.21387 182.04877Q281.12012 182.04877 281.76855 181.5722Q282.417 181.09564 282.80762 180.03314ZM277.32324 177.33002L282.82324 177.33002Q282.71387 176.09564 282.19824 175.47064Q281.40137 174.50189 280.12012 174.50189Q278.9795 174.50189 278.19043 175.27533Q277.40137 176.04877 277.32324 177.33002Z" fill-rule="nonzero" fill="#000000"></path><path d="M212.54199 204.20502L212.54199 190.61127L222.38574 190.61127L222.38574 192.20502L214.33887 192.20502L214.33887 196.37689L221.87012 196.37689L221.87012 197.97064L214.33887 197.97064L214.33887 202.59564L222.69824 202.59564L222.69824 204.20502L212.54199 204.20502ZM223.63574 204.20502L227.22949 199.08002L223.90137 194.34564L225.99512 194.34564L227.51074 196.65814Q227.93262 197.31439 228.18262 197.76752Q228.60449 197.15814 228.94824 196.67377L230.60449 194.34564L232.58887 194.34564L229.19824 198.98627L232.85449 204.20502L230.80762 204.20502L228.77637 201.14252L228.24512 200.31439L225.65137 204.20502L223.63574 204.20502ZM237.72949 202.70502L237.96387 204.18939Q237.26074 204.33002 236.69824 204.33002Q235.79199 204.33002 235.29199 204.04095Q234.79199 203.75189 234.58887 203.29095Q234.38574 202.83002 234.38574 201.31439L234.38574 195.65814L233.15137 195.65814L233.15137 194.34564L234.38574 194.34564L234.38574 191.90814L236.04199 190.90814L236.04199 194.34564L237.72949 194.34564L237.72949 195.65814L236.04199 195.65814L236.04199 201.40814Q236.04199 202.12689 236.12793 202.33002Q236.21387 202.53314 236.41699 202.65814Q236.62012 202.78314 236.99512 202.78314Q237.26074 202.78314 237.72949 202.70502ZM239.24512 204.20502L239.24512 194.34564L240.74512 194.34564L240.74512 195.84564Q241.32324 194.79877 241.80762 194.46283Q242.29199 194.12689 242.88574 194.12689Q243.72949 194.12689 244.60449 194.67377L244.02637 196.22064Q243.41699 195.86127 242.79199 195.86127Q242.24512 195.86127 241.81543 196.18939Q241.38574 196.51752 241.19824 197.09564Q240.91699 197.98627 240.91699 199.04877L240.91699 204.20502L239.24512 204.20502ZM251.90137 202.98627Q250.96387 203.78314 250.10449 204.10345Q249.24512 204.42377 248.26074 204.42377Q246.65137 204.42377 245.77637 203.6347Q244.90137 202.84564 244.90137 201.61127Q244.90137 200.87689 245.22949 200.28314Q245.55762 199.68939 246.08887 199.33002Q246.62012 198.97064 247.29199 198.78314Q247.79199 198.64252 248.77637 198.53314Q250.80762 198.28314 251.76074 197.95502Q251.76074 197.61127 251.76074 197.51752Q251.76074 196.50189 251.29199 196.08002Q250.65137 195.51752 249.38574 195.51752Q248.21387 195.51752 247.65137 195.92377Q247.08887 196.33002 246.82324 197.39252L245.18262 197.15814Q245.41699 196.11127 245.9248 195.47064Q246.43262 194.83002 247.39355 194.47845Q248.35449 194.12689 249.63574 194.12689Q250.90137 194.12689 251.68262 194.42377Q252.46387 194.72064 252.83887 195.17377Q253.21387 195.62689 253.35449 196.31439Q253.44824 196.73627 253.44824 197.84564L253.44824 200.08002Q253.44824 202.40814 253.5498 203.02533Q253.65137 203.64252 253.97949 204.20502L252.22949 204.20502Q251.96387 203.68939 251.90137 202.98627ZM251.76074 199.26752Q250.85449 199.62689 249.02637 199.89252Q247.99512 200.03314 247.57324 200.22064Q247.15137 200.40814 246.91699 200.76752Q246.68262 201.12689 246.68262 201.56439Q246.68262 202.23627 247.19043 202.68158Q247.69824 203.12689 248.66699 203.12689Q249.63574 203.12689 250.38574 202.6972Q251.13574 202.26752 251.49512 201.54877Q251.76074 200.97064 251.76074 199.87689L251.76074 199.26752ZM262.27637 200.59564L263.917 200.81439Q263.65137 202.50189 262.542 203.46283Q261.43262 204.42377 259.80762 204.42377Q257.792 204.42377 256.56543 203.10345Q255.33887 201.78314 255.33887 199.31439Q255.33887 197.72064 255.8623 196.52533Q256.38574 195.33002 257.47168 194.72845Q258.55762 194.12689 259.82324 194.12689Q261.43262 194.12689 262.44824 194.93939Q263.46387 195.75189 263.76074 197.25189L262.13574 197.50189Q261.90137 196.50189 261.30762 196.00189Q260.71387 195.50189 259.88574 195.50189Q258.62012 195.50189 257.83105 196.40814Q257.042 197.31439 257.042 199.26752Q257.042 201.25189 257.80762 202.15033Q258.57324 203.04877 259.792 203.04877Q260.77637 203.04877 261.43262 202.4472Q262.08887 201.84564 262.27637 200.59564ZM268.82324 202.70502L269.05762 204.18939Q268.3545 204.33002 267.792 204.33002Q266.88574 204.33002 266.38574 204.04095Q265.88574 203.75189 265.68262 203.29095Q265.4795 202.83002 265.4795 201.31439L265.4795 195.65814L264.24512 195.65814L264.24512 194.34564L265.4795 194.34564L265.4795 191.90814L267.13574 190.90814L267.13574 194.34564L268.82324 194.34564L268.82324 195.65814L267.13574 195.65814L267.13574 201.40814Q267.13574 202.12689 267.22168 202.33002Q267.30762 202.53314 267.51074 202.65814Q267.71387 202.78314 268.08887 202.78314Q268.3545 202.78314 268.82324 202.70502ZM269.7295 199.28314Q269.7295 196.54877 271.26074 195.22064Q272.52637 194.12689 274.3545 194.12689Q276.38574 194.12689 277.6748 195.46283Q278.96387 196.79877 278.96387 199.14252Q278.96387 201.04877 278.39355 202.1347Q277.82324 203.22064 276.7373 203.8222Q275.65137 204.42377 274.3545 204.42377Q272.292 204.42377 271.01074 203.09564Q269.7295 201.76752 269.7295 199.28314ZM271.44824 199.28314Q271.44824 201.17377 272.27637 202.11127Q273.1045 203.04877 274.3545 203.04877Q275.6045 203.04877 276.4248 202.10345Q277.24512 201.15814 277.24512 199.22064Q277.24512 197.39252 276.417 196.45502Q275.58887 195.51752 274.3545 195.51752Q273.1045 195.51752 272.27637 196.45502Q271.44824 197.39252 271.44824 199.28314ZM280.71387 204.20502L280.71387 194.34564L282.21387 194.34564L282.21387 195.84564Q282.792 194.79877 283.27637 194.46283Q283.76074 194.12689 284.3545 194.12689Q285.19824 194.12689 286.07324 194.67377L285.49512 196.22064Q284.88574 195.86127 284.26074 195.86127Q283.71387 195.86127 283.28418 196.18939Q282.8545 196.51752 282.667 197.09564Q282.38574 197.98627 282.38574 199.04877L282.38574 204.20502L280.71387 204.20502ZM286.27637 201.26752L287.93262 201.00189Q288.07324 202.00189 288.70605 202.52533Q289.33887 203.04877 290.4795 203.04877Q291.63574 203.04877 292.19043 202.58002Q292.74512 202.11127 292.74512 201.48627Q292.74512 200.92377 292.26074 200.59564Q291.917 200.37689 290.55762 200.03314Q288.71387 199.56439 288.00293 199.22845Q287.292 198.89252 286.9248 198.29095Q286.55762 197.68939 286.55762 196.97064Q286.55762 196.31439 286.8623 195.75189Q287.167 195.18939 287.68262 194.81439Q288.07324 194.53314 288.74512 194.33002Q289.417 194.12689 290.18262 194.12689Q291.3545 194.12689 292.2295 194.46283Q293.1045 194.79877 293.51855 195.36908Q293.93262 195.93939 294.08887 196.89252L292.46387 197.11127Q292.3545 196.36127 291.81543 195.93158Q291.27637 195.50189 290.30762 195.50189Q289.15137 195.50189 288.667 195.8847Q288.18262 196.26752 288.18262 196.76752Q288.18262 197.09564 288.38574 197.36127Q288.58887 197.62689 289.02637 197.79877Q289.27637 197.89252 290.49512 198.23627Q292.26074 198.70502 292.96387 199.00189Q293.667 199.29877 294.06543 199.87689Q294.46387 200.45502 294.46387 201.31439Q294.46387 202.14252 293.9795 202.8847Q293.49512 203.62689 292.57324 204.02533Q291.65137 204.42377 290.49512 204.42377Q288.57324 204.42377 287.56543 203.62689Q286.55762 202.83002 286.27637 201.26752Z" fill-rule="nonzero" fill="#000000"></path><path d="M231.55762 229.20502Q230.18262 227.45502 229.22949 225.11908Q228.27637 222.78314 228.27637 220.28314Q228.27637 218.06439 228.97949 216.04877Q229.82324 213.70502 231.55762 211.37689L232.76074 211.37689Q231.63574 213.29877 231.27637 214.12689Q230.71387 215.40814 230.38574 216.79877Q229.97949 218.53314 229.97949 220.28314Q229.97949 224.75189 232.76074 229.20502L231.55762 229.20502ZM234.19824 220.83002L235.88574 220.68939Q236.01074 221.70502 236.44824 222.36127Q236.88574 223.01752 237.81543 223.42377Q238.74512 223.83002 239.90137 223.83002Q240.93262 223.83002 241.72168 223.51752Q242.51074 223.20502 242.90137 222.67377Q243.29199 222.14252 243.29199 221.51752Q243.29199 220.87689 242.91699 220.40033Q242.54199 219.92377 241.68262 219.59564Q241.13574 219.37689 239.26074 218.93158Q237.38574 218.48627 236.63574 218.08002Q235.66699 217.56439 235.19043 216.81439Q234.71387 216.06439 234.71387 215.12689Q234.71387 214.09564 235.2998 213.1972Q235.88574 212.29877 237.00293 211.83783Q238.12012 211.37689 239.49512 211.37689Q241.01074 211.37689 242.16699 211.86127Q243.32324 212.34564 243.94043 213.29095Q244.55762 214.23627 244.60449 215.43939L242.88574 215.56439Q242.74512 214.28314 241.94043 213.61908Q241.13574 212.95502 239.57324 212.95502Q237.94824 212.95502 237.19824 213.55658Q236.44824 214.15814 236.44824 215.00189Q236.44824 215.73627 236.97949 216.20502Q237.49512 216.67377 239.69043 217.17377Q241.88574 217.67377 242.69824 218.04877Q243.88574 218.59564 244.45605 219.43158Q245.02637 220.26752 245.02637 221.36127Q245.02637 222.45502 244.40137 223.41595Q243.77637 224.37689 242.6123 224.90814Q241.44824 225.43939 239.99512 225.43939Q238.15137 225.43939 236.90137 224.90033Q235.65137 224.36127 234.94043 223.28314Q234.22949 222.20502 234.19824 220.83002ZM247.54199 225.20502L247.54199 211.61127L249.35449 211.61127L249.35449 225.20502L247.54199 225.20502ZM252.52637 225.20502L252.52637 211.61127L261.69824 211.61127L261.69824 213.20502L254.32324 213.20502L254.32324 217.42377L260.69824 217.42377L260.69824 219.03314L254.32324 219.03314L254.32324 225.20502L252.52637 225.20502ZM267.27637 225.20502L267.27637 213.20502L262.80762 213.20502L262.80762 211.61127L273.57324 211.61127L273.57324 213.20502L269.07324 213.20502L269.07324 225.20502L267.27637 225.20502ZM275.44824 225.20502L275.44824 223.29877L277.3545 223.29877L277.3545 225.20502Q277.3545 226.25189 276.9795 226.90033Q276.6045 227.54877 275.80762 227.89252L275.33887 227.17377Q275.87012 226.95502 276.12012 226.50189Q276.37012 226.04877 276.40137 225.20502L275.44824 225.20502Z" fill-rule="nonzero" fill="#000000"></path><path d="M222.22949 241.43939L224.02637 241.89252Q223.46387 244.11127 221.99512 245.27533Q220.52637 246.43939 218.40137 246.43939Q216.19824 246.43939 214.82324 245.54095Q213.44824 244.64252 212.72949 242.9472Q212.01074 241.25189 212.01074 239.29877Q212.01074 237.17377 212.81543 235.59564Q213.62012 234.01752 215.12012 233.1972Q216.62012 232.37689 218.41699 232.37689Q220.46387 232.37689 221.85449 233.41595Q223.24512 234.45502 223.79199 236.33002L222.02637 236.75189Q221.55762 235.26752 220.65137 234.58783Q219.74512 233.90814 218.38574 233.90814Q216.82324 233.90814 215.76855 234.65814Q214.71387 235.40814 214.28418 236.68158Q213.85449 237.95502 213.85449 239.29877Q213.85449 241.03314 214.3623 242.3222Q214.87012 243.61127 215.94043 244.25189Q217.01074 244.89252 218.24512 244.89252Q219.76074 244.89252 220.80762 244.02533Q221.85449 243.15814 222.22949 241.43939ZM226.04199 246.20502L226.04199 232.61127L232.07324 232.61127Q233.88574 232.61127 234.83105 232.97064Q235.77637 233.33002 236.33887 234.2597Q236.90137 235.18939 236.90137 236.31439Q236.90137 237.76752 235.97168 238.7597Q235.04199 239.75189 233.07324 240.01752Q233.79199 240.36127 234.16699 240.68939Q234.94824 241.42377 235.65137 242.50189L238.02637 246.20502L235.76074 246.20502L233.96387 243.37689Q233.16699 242.15814 232.65918 241.50189Q232.15137 240.84564 231.74512 240.58783Q231.33887 240.33002 230.93262 240.23627Q230.62012 240.15814 229.91699 240.15814L227.83887 240.15814L227.83887 246.20502L226.04199 246.20502ZM227.83887 238.61127L231.69824 238.61127Q232.93262 238.61127 233.62793 238.35345Q234.32324 238.09564 234.69043 237.53314Q235.05762 236.97064 235.05762 236.31439Q235.05762 235.34564 234.35449 234.72845Q233.65137 234.11127 232.13574 234.11127L227.83887 234.11127L227.83887 238.61127ZM239.57324 246.20502L239.57324 232.61127L248.74512 232.61127L248.74512 234.20502L241.37012 234.20502L241.37012 238.42377L247.74512 238.42377L247.74512 240.03314L241.37012 240.03314L241.37012 246.20502L239.57324 246.20502ZM250.91699 246.20502L250.91699 232.61127L252.72949 232.61127L252.72949 238.18939L259.792 238.18939L259.792 232.61127L261.58887 232.61127L261.58887 246.20502L259.792 246.20502L259.792 239.79877L252.72949 239.79877L252.72949 246.20502L250.91699 246.20502ZM264.55762 246.20502L264.55762 244.29877L266.46387 244.29877L266.46387 246.20502Q266.46387 247.25189 266.08887 247.90033Q265.71387 248.54877 264.917 248.89252L264.44824 248.17377Q264.9795 247.95502 265.2295 247.50189Q265.4795 247.04877 265.51074 246.20502L264.55762 246.20502ZM274.96387 246.20502L274.96387 244.29877L276.87012 244.29877L276.87012 246.20502L274.96387 246.20502ZM280.15137 246.20502L280.15137 244.29877L282.05762 244.29877L282.05762 246.20502L280.15137 246.20502ZM285.32324 246.20502L285.32324 244.29877L287.2295 244.29877L287.2295 246.20502L285.32324 246.20502ZM291.13574 250.20502L289.94824 250.20502Q292.71387 245.75189 292.71387 241.28314Q292.71387 239.54877 292.32324 237.83002Q291.99512 236.43939 291.43262 235.15814Q291.07324 234.31439 289.94824 232.37689L291.13574 232.37689Q292.88574 234.70502 293.71387 237.04877Q294.43262 239.06439 294.43262 241.28314Q294.43262 243.78314 293.47168 246.11908Q292.51074 248.45502 291.13574 250.20502Z" fill-rule="nonzero" fill="#000000"></path><path d="M35.22202 278.83627L161.36375 278.83627L161.36375 361.67093L35.22202 361.67093Z" fill-rule="nonzero" fill="#cfe2f3" stroke="#073763" stroke-width="2.0" stroke-linejoin="round" stroke-linecap="butt"></path><path d="M74.86264 316.24252L74.86264 302.64877L79.55014 302.64877Q81.128265 302.64877 81.972015 302.83627Q83.128265 303.1019 83.95639 303.80502Q85.034515 304.7269 85.565765 306.14096Q86.097015 307.55502 86.097015 309.36752Q86.097015 310.9144 85.73764 312.1097Q85.378265 313.30502 84.815765 314.0941Q84.253265 314.88315 83.58139 315.32846Q82.909515 315.77377 81.95639 316.00815Q81.003265 316.24252 79.76889 316.24252L74.86264 316.24252ZM76.659515 314.63315L79.565765 314.63315Q80.909515 314.63315 81.67514 314.38315Q82.440765 314.13315 82.89389 313.68002Q83.534515 313.0394 83.89389 311.96127Q84.253265 310.88315 84.253265 309.33627Q84.253265 307.21127 83.55014 306.06284Q82.847015 304.9144 81.847015 304.52377Q81.128265 304.24252 79.51889 304.24252L76.659515 304.24252L76.659515 314.63315ZM94.86264 313.07065L96.58139 313.2894Q96.17514 314.7894 95.07358 315.62534Q93.972015 316.46127 92.253265 316.46127Q90.097015 316.46127 88.83139 315.13315Q87.565765 313.80502 87.565765 311.39877Q87.565765 308.9144 88.8392 307.5394Q90.11264 306.1644 92.159515 306.1644Q94.14389 306.1644 95.39389 307.50815Q96.64389 308.8519 96.64389 311.30502Q96.64389 311.44565 96.628265 311.74252L89.284515 311.74252Q89.378265 313.36752 90.20639 314.2269Q91.034515 315.08627 92.26889 315.08627Q93.17514 315.08627 93.82358 314.6097Q94.472015 314.13315 94.86264 313.07065ZM89.378265 310.36752L94.878265 310.36752Q94.76889 309.13315 94.253265 308.50815Q93.45639 307.5394 92.17514 307.5394Q91.034515 307.5394 90.24545 308.31284Q89.45639 309.08627 89.378265 310.36752ZM98.48764 320.02377L98.48764 306.38315L100.01889 306.38315L100.01889 307.6644Q100.55014 306.9144 101.22983 306.5394Q101.909515 306.1644 102.86264 306.1644Q104.128265 306.1644 105.097015 306.81284Q106.065765 307.46127 106.55795 308.64877Q107.05014 309.83627 107.05014 311.24252Q107.05014 312.75815 106.503265 313.9691Q105.95639 315.18002 104.92514 315.82065Q103.89389 316.46127 102.753265 316.46127Q101.909515 316.46127 101.24545 316.1097Q100.58139 315.75815 100.159515 315.2269L100.159515 320.02377L98.48764 320.02377ZM100.003265 311.36752Q100.003265 313.27377 100.7767 314.18002Q101.55014 315.08627 102.64389 315.08627Q103.753265 315.08627 104.54233 314.14877Q105.33139 313.21127 105.33139 311.2269Q105.33139 309.3519 104.55795 308.4144Q103.784515 307.4769 102.70639 307.4769Q101.64389 307.4769 100.82358 308.4769Q100.003265 309.4769 100.003265 311.36752ZM112.51889 314.74252L112.753265 316.2269Q112.05014 316.36752 111.48764 316.36752Q110.58139 316.36752 110.08139 316.07846Q109.58139 315.7894 109.378265 315.32846Q109.17514 314.86752 109.17514 313.3519L109.17514 307.69565L107.940765 307.69565L107.940765 306.38315L109.17514 306.38315L109.17514 303.94565L110.83139 302.94565L110.83139 306.38315L112.51889 306.38315L112.51889 307.69565L110.83139 307.69565L110.83139 313.44565Q110.83139 314.1644 110.91733 314.36752Q111.003265 314.57065 111.20639 314.69565Q111.409515 314.82065 111.784515 314.82065Q112.05014 314.82065 112.51889 314.74252ZM114.05014 316.24252L114.05014 302.64877L115.722015 302.64877L115.722015 307.52377Q116.89389 306.1644 118.67514 306.1644Q119.76889 306.1644 120.57358 306.5941Q121.378265 307.02377 121.72983 307.7894Q122.08139 308.55502 122.08139 309.99252L122.08139 316.24252L120.409515 316.24252L120.409515 309.99252Q120.409515 308.74252 119.86264 308.1722Q119.315765 307.6019 118.33139 307.6019Q117.58139 307.6019 116.93295 307.9847Q116.284515 308.36752 116.003265 309.0316Q115.722015 309.69565 115.722015 310.8519L115.722015 316.24252L114.05014 316.24252Z" fill-rule="nonzero" fill="#000000"></path><path d="M53.393894 337.24252L53.393894 323.64877L55.206394 323.64877L55.206394 337.24252L53.393894 337.24252ZM58.050144 337.24252L58.050144 327.38315L59.550144 327.38315L59.550144 328.7894Q60.643894 327.1644 62.69077 327.1644Q63.581394 327.1644 64.33139 327.4847Q65.08139 327.80502 65.44858 328.32846Q65.815765 328.8519 65.972015 329.55502Q66.065765 330.02377 66.065765 331.18002L66.065765 337.24252L64.39389 337.24252L64.39389 331.24252Q64.39389 330.2269 64.19858 329.7191Q64.003265 329.21127 63.50327 328.9144Q63.00327 328.61752 62.331394 328.61752Q61.268894 328.61752 60.495457 329.2894Q59.72202 329.96127 59.72202 331.86752L59.72202 337.24252L58.050144 337.24252ZM68.83139 337.24252L68.83139 328.69565L67.347015 328.69565L67.347015 327.38315L68.83139 327.38315L68.83139 326.33627Q68.83139 325.3519 69.003265 324.86752Q69.23764 324.21127 69.847015 323.81284Q70.45639 323.4144 71.55014 323.4144Q72.253265 323.4144 73.11264 323.57065L72.86264 325.0394Q72.347015 324.94565 71.878265 324.94565Q71.11264 324.94565 70.80014 325.26596Q70.48764 325.58627 70.48764 326.4769L70.48764 327.38315L72.409515 327.38315L72.409515 328.69565L70.48764 328.69565L70.48764 337.24252L68.83139 337.24252ZM72.98764 332.32065Q72.98764 329.58627 74.51889 328.25815Q75.784515 327.1644 77.61264 327.1644Q79.64389 327.1644 80.93295 328.50034Q82.222015 329.83627 82.222015 332.18002Q82.222015 334.08627 81.6517 335.1722Q81.08139 336.25815 79.99545 336.8597Q78.909515 337.46127 77.61264 337.46127Q75.55014 337.46127 74.26889 336.13315Q72.98764 334.80502 72.98764 332.32065ZM74.70639 332.32065Q74.70639 334.21127 75.534515 335.14877Q76.36264 336.08627 77.61264 336.08627Q78.86264 336.08627 79.68295 335.14096Q80.503265 334.19565 80.503265 332.25815Q80.503265 330.43002 79.67514 329.49252Q78.847015 328.55502 77.61264 328.55502Q76.36264 328.55502 75.534515 329.49252Q74.70639 330.43002 74.70639 332.32065ZM83.972015 337.24252L83.972015 327.38315L85.472015 327.38315L85.472015 328.88315Q86.05014 327.83627 86.534515 327.50034Q87.01889 327.1644 87.61264 327.1644Q88.45639 327.1644 89.33139 327.71127L88.753265 329.25815Q88.14389 328.89877 87.51889 328.89877Q86.972015 328.89877 86.54233 329.2269Q86.11264 329.55502 85.92514 330.13315Q85.64389 331.02377 85.64389 332.08627L85.64389 337.24252L83.972015 337.24252ZM90.20639 337.24252L90.20639 327.38315L91.70639 327.38315L91.70639 328.77377Q92.159515 328.05502 92.93295 327.6097Q93.70639 327.1644 94.690765 327.1644Q95.784515 327.1644 96.48764 327.61752Q97.190765 328.07065 97.472015 328.89877Q98.64389 327.1644 100.51889 327.1644Q101.98764 327.1644 102.7767 327.9769Q103.565765 328.7894 103.565765 330.4769L103.565765 337.24252L101.89389 337.24252L101.89389 331.0394Q101.89389 330.0394 101.73764 329.5941Q101.58139 329.14877 101.1517 328.88315Q100.722015 328.61752 100.14389 328.61752Q99.11264 328.61752 98.42514 329.30502Q97.73764 329.99252 97.73764 331.52377L97.73764 337.24252L96.065765 337.24252L96.065765 330.83627Q96.065765 329.7269 95.659515 329.1722Q95.253265 328.61752 94.315765 328.61752Q93.61264 328.61752 93.01108 328.9847Q92.409515 329.3519 92.14389 330.07065Q91.878265 330.7894 91.878265 332.13315L91.878265 337.24252L90.20639 337.24252ZM112.17514 336.02377Q111.23764 336.82065 110.378265 337.14096Q109.51889 337.46127 108.534515 337.46127Q106.92514 337.46127 106.05014 336.6722Q105.17514 335.88315 105.17514 334.64877Q105.17514 333.9144 105.503265 333.32065Q105.83139 332.7269 106.36264 332.36752Q106.89389 332.00815 107.565765 331.82065Q108.065765 331.68002 109.05014 331.57065Q111.08139 331.32065 112.034515 330.99252Q112.034515 330.64877 112.034515 330.55502Q112.034515 329.5394 111.565765 329.11752Q110.92514 328.55502 109.659515 328.55502Q108.48764 328.55502 107.92514 328.96127Q107.36264 329.36752 107.097015 330.43002L105.45639 330.19565Q105.690765 329.14877 106.19858 328.50815Q106.70639 327.86752 107.66733 327.51596Q108.628265 327.1644 109.909515 327.1644Q111.17514 327.1644 111.95639 327.46127Q112.73764 327.75815 113.11264 328.21127Q113.48764 328.6644 113.628265 329.3519Q113.722015 329.77377 113.722015 330.88315L113.722015 333.11752Q113.722015 335.44565 113.82358 336.06284Q113.92514 336.68002 114.253265 337.24252L112.503265 337.24252Q112.23764 336.7269 112.17514 336.02377ZM112.034515 332.30502Q111.128265 332.6644 109.30014 332.93002Q108.26889 333.07065 107.847015 333.25815Q107.42514 333.44565 107.190765 333.80502Q106.95639 334.1644 106.95639 334.6019Q106.95639 335.27377 107.4642 335.7191Q107.972015 336.1644 108.940765 336.1644Q109.909515 336.1644 110.659515 335.7347Q111.409515 335.30502 111.76889 334.58627Q112.034515 334.00815 112.034515 332.9144L112.034515 332.30502ZM119.76889 335.74252L120.003265 337.2269Q119.30014 337.36752 118.73764 337.36752Q117.83139 337.36752 117.33139 337.07846Q116.83139 336.7894 116.628265 336.32846Q116.42514 335.86752 116.42514 334.3519L116.42514 328.69565L115.190765 328.69565L115.190765 327.38315L116.42514 327.38315L116.42514 324.94565L118.08139 323.94565L118.08139 327.38315L119.76889 327.38315L119.76889 328.69565L118.08139 328.69565L118.08139 334.44565Q118.08139 335.1644 118.16733 335.36752Q118.253265 335.57065 118.45639 335.69565Q118.659515 335.82065 119.034515 335.82065Q119.30014 335.82065 119.76889 335.74252ZM121.315765 325.55502L121.315765 323.64877L122.98764 323.64877L122.98764 325.55502L121.315765 325.55502ZM121.315765 337.24252L121.315765 327.38315L122.98764 327.38315L122.98764 337.24252L121.315765 337.24252ZM124.815765 332.32065Q124.815765 329.58627 126.347015 328.25815Q127.61264 327.1644 129.44077 327.1644Q131.47202 327.1644 132.76108 328.50034Q134.05014 329.83627 134.05014 332.18002Q134.05014 334.08627 133.47983 335.1722Q132.90952 336.25815 131.82358 336.8597Q130.73764 337.46127 129.44077 337.46127Q127.378265 337.46127 126.097015 336.13315Q124.815765 334.80502 124.815765 332.32065ZM126.534515 332.32065Q126.534515 334.21127 127.36264 335.14877Q128.19077 336.08627 129.44077 336.08627Q130.69077 336.08627 131.51108 335.14096Q132.33139 334.19565 132.33139 332.25815Q132.33139 330.43002 131.50327 329.49252Q130.67514 328.55502 129.44077 328.55502Q128.19077 328.55502 127.36264 329.49252Q126.534515 330.43002 126.534515 332.32065ZM135.81577 337.24252L135.81577 327.38315L137.31577 327.38315L137.31577 328.7894Q138.40952 327.1644 140.45639 327.1644Q141.34702 327.1644 142.09702 327.4847Q142.84702 327.80502 143.2142 328.32846Q143.58139 328.8519 143.73764 329.55502Q143.83139 330.02377 143.83139 331.18002L143.83139 337.24252L142.15952 337.24252L142.15952 331.24252Q142.15952 330.2269 141.9642 329.7191Q141.76889 329.21127 141.26889 328.9144Q140.76889 328.61752 140.09702 328.61752Q139.03452 328.61752 138.26108 329.2894Q137.48764 329.96127 137.48764 331.86752L137.48764 337.24252L135.81577 337.24252Z" fill-rule="nonzero" fill="#000000"></path><path d="M35.22202 172.8106L161.36375 172.8106L161.36375 255.64525L35.22202 255.64525Z" fill-rule="nonzero" fill="#cfe2f3" stroke="#073763" stroke-width="2.0" stroke-linejoin="round" stroke-linecap="butt"></path><path d="M74.128265 220.71684L74.128265 207.1231L75.940765 207.1231L75.940765 220.71684L74.128265 220.71684ZM78.80014 220.71684L78.80014 210.85747L80.30014 210.85747L80.30014 212.2481Q80.753265 211.52934 81.5267 211.08403Q82.30014 210.63872 83.284515 210.63872Q84.378265 210.63872 85.08139 211.09184Q85.784515 211.54497 86.065765 212.3731Q87.23764 210.63872 89.11264 210.63872Q90.58139 210.63872 91.37045 211.45122Q92.159515 212.26372 92.159515 213.95122L92.159515 220.71684L90.48764 220.71684L90.48764 214.51372Q90.48764 213.51372 90.33139 213.0684Q90.17514 212.6231 89.74545 212.35747Q89.315765 212.09184 88.73764 212.09184Q87.70639 212.09184 87.01889 212.77934Q86.33139 213.46684 86.33139 214.9981L86.33139 220.71684L84.659515 220.71684L84.659515 214.3106Q84.659515 213.20122 84.253265 212.64653Q83.847015 212.09184 82.909515 212.09184Q82.20639 212.09184 81.60483 212.45903Q81.003265 212.82622 80.73764 213.54497Q80.472015 214.26372 80.472015 215.60747L80.472015 220.71684L78.80014 220.71684ZM100.76889 219.4981Q99.83139 220.29497 98.972015 220.61528Q98.11264 220.9356 97.128265 220.9356Q95.51889 220.9356 94.64389 220.14653Q93.76889 219.35747 93.76889 218.1231Q93.76889 217.38872 94.097015 216.79497Q94.42514 216.20122 94.95639 215.84184Q95.48764 215.48247 96.159515 215.29497Q96.659515 215.15434 97.64389 215.04497Q99.67514 214.79497 100.628265 214.46684Q100.628265 214.1231 100.628265 214.02934Q100.628265 213.01372 100.159515 212.59184Q99.51889 212.02934 98.253265 212.02934Q97.08139 212.02934 96.51889 212.4356Q95.95639 212.84184 95.690765 213.90434L94.05014 213.66997Q94.284515 212.6231 94.79233 211.98247Q95.30014 211.34184 96.26108 210.99028Q97.222015 210.63872 98.503265 210.63872Q99.76889 210.63872 100.55014 210.9356Q101.33139 211.23247 101.70639 211.6856Q102.08139 212.13872 102.222015 212.82622Q102.315765 213.2481 102.315765 214.35747L102.315765 216.59184Q102.315765 218.91997 102.41733 219.53716Q102.51889 220.15434 102.847015 220.71684L101.097015 220.71684Q100.83139 220.20122 100.76889 219.4981ZM100.628265 215.77934Q99.722015 216.13872 97.89389 216.40434Q96.86264 216.54497 96.440765 216.73247Q96.01889 216.91997 95.784515 217.27934Q95.55014 217.63872 95.55014 218.07622Q95.55014 218.7481 96.05795 219.1934Q96.565765 219.63872 97.534515 219.63872Q98.503265 219.63872 99.253265 219.20903Q100.003265 218.77934 100.36264 218.0606Q100.628265 217.48247 100.628265 216.38872L100.628265 215.77934ZM104.409515 221.52934L106.01889 221.77934Q106.128265 222.52934 106.597015 222.8731Q107.20639 223.32622 108.284515 223.32622Q109.45639 223.32622 110.08139 222.86528Q110.70639 222.40434 110.940765 221.57622Q111.065765 221.0606 111.05014 219.41997Q109.95639 220.71684 108.33139 220.71684Q106.30014 220.71684 105.18295 219.2481Q104.065765 217.77934 104.065765 215.73247Q104.065765 214.32622 104.58139 213.1309Q105.097015 211.9356 106.065765 211.28716Q107.034515 210.63872 108.33139 210.63872Q110.08139 210.63872 111.20639 212.04497L111.20639 210.85747L112.753265 210.85747L112.753265 219.3731Q112.753265 221.6856 112.284515 222.64653Q111.815765 223.60747 110.80014 224.16216Q109.784515 224.71684 108.30014 224.71684Q106.534515 224.71684 105.44858 223.91997Q104.36264 223.1231 104.409515 221.52934ZM105.784515 215.60747Q105.784515 217.5606 106.55795 218.45122Q107.33139 219.34184 108.48764 219.34184Q109.628265 219.34184 110.409515 218.45122Q111.190765 217.5606 111.190765 215.66997Q111.190765 213.85747 110.38608 212.9434Q109.58139 212.02934 108.45639 212.02934Q107.347015 212.02934 106.565765 212.92778Q105.784515 213.82622 105.784515 215.60747ZM121.83139 217.54497L123.55014 217.76372Q123.14389 219.26372 122.04233 220.09966Q120.940765 220.9356 119.222015 220.9356Q117.065765 220.9356 115.80014 219.60747Q114.534515 218.27934 114.534515 215.8731Q114.534515 213.38872 115.80795 212.01372Q117.08139 210.63872 119.128265 210.63872Q121.11264 210.63872 122.36264 211.98247Q123.61264 213.32622 123.61264 215.77934Q123.61264 215.91997 123.597015 216.21684L116.253265 216.21684Q116.347015 217.84184 117.17514 218.70122Q118.003265 219.5606 119.23764 219.5606Q120.14389 219.5606 120.79233 219.08403Q121.440765 218.60747 121.83139 217.54497ZM116.347015 214.84184L121.847015 214.84184Q121.73764 213.60747 121.222015 212.98247Q120.42514 212.01372 119.14389 212.01372Q118.003265 212.01372 117.2142 212.78716Q116.42514 213.5606 116.347015 214.84184Z" fill-rule="nonzero" fill="#000000"></path><path d="M35.22202 67.94446L161.36375 67.94446L161.36375 150.77911L35.22202 150.77911Z" fill-rule="nonzero" fill="#cfe2f3" stroke="#073763" stroke-width="2.0" stroke-linejoin="round" stroke-linecap="butt"></path><path d="M48.84702 111.47571L50.53452 111.33508Q50.65952 112.35071 51.09702 113.00696Q51.53452 113.66321 52.464207 114.06946Q53.393894 114.47571 54.550144 114.47571Q55.581394 114.47571 56.370457 114.16321Q57.15952 113.85071 57.550144 113.31946Q57.94077 112.78821 57.94077 112.16321Q57.94077 111.52258 57.56577 111.04602Q57.19077 110.56946 56.331394 110.24133Q55.78452 110.02258 53.90952 109.57727Q52.03452 109.13196 51.28452 108.72571Q50.31577 108.21008 49.839207 107.46008Q49.362644 106.71008 49.362644 105.77258Q49.362644 104.74133 49.94858 103.842896Q50.53452 102.94446 51.651707 102.48352Q52.768894 102.02258 54.143894 102.02258Q55.65952 102.02258 56.81577 102.50696Q57.97202 102.99133 58.589207 103.936646Q59.206394 104.88196 59.25327 106.08508L57.53452 106.21008Q57.393894 104.92883 56.589207 104.26477Q55.78452 103.60071 54.22202 103.60071Q52.59702 103.60071 51.84702 104.20227Q51.09702 104.80383 51.09702 105.64758Q51.09702 106.38196 51.62827 106.85071Q52.143894 107.31946 54.339207 107.81946Q56.53452 108.31946 57.34702 108.69446Q58.53452 109.24133 59.10483 110.07727Q59.675144 110.91321 59.675144 112.00696Q59.675144 113.10071 59.050144 114.061646Q58.425144 115.02258 57.26108 115.55383Q56.09702 116.08508 54.643894 116.08508Q52.800144 116.08508 51.550144 115.54602Q50.300144 115.00696 49.589207 113.92883Q48.87827 112.85071 48.84702 111.47571ZM68.42514 112.67883L70.14389 112.89758Q69.73764 114.39758 68.63608 115.23352Q67.534515 116.06946 65.815765 116.06946Q63.65952 116.06946 62.393894 114.74133Q61.12827 113.41321 61.12827 111.00696Q61.12827 108.52258 62.401707 107.14758Q63.675144 105.77258 65.722015 105.77258Q67.70639 105.77258 68.95639 107.11633Q70.20639 108.46008 70.20639 110.91321Q70.20639 111.05383 70.190765 111.35071L62.84702 111.35071Q62.94077 112.97571 63.768894 113.83508Q64.597015 114.69446 65.83139 114.69446Q66.73764 114.69446 67.38608 114.217896Q68.034515 113.74133 68.42514 112.67883ZM62.94077 109.97571L68.440765 109.97571Q68.33139 108.74133 67.815765 108.11633Q67.01889 107.14758 65.73764 107.14758Q64.597015 107.14758 63.807957 107.92102Q63.018894 108.69446 62.94077 109.97571ZM72.05014 115.85071L72.05014 105.99133L73.55014 105.99133L73.55014 107.39758Q74.64389 105.77258 76.690765 105.77258Q77.58139 105.77258 78.33139 106.092896Q79.08139 106.41321 79.44858 106.936646Q79.815765 107.46008 79.972015 108.16321Q80.065765 108.63196 80.065765 109.78821L80.065765 115.85071L78.39389 115.85071L78.39389 109.85071Q78.39389 108.83508 78.19858 108.32727Q78.003265 107.81946 77.503265 107.52258Q77.003265 107.22571 76.33139 107.22571Q75.26889 107.22571 74.49545 107.89758Q73.722015 108.56946 73.722015 110.47571L73.722015 115.85071L72.05014 115.85071ZM81.753265 112.91321L83.409515 112.64758Q83.55014 113.64758 84.18295 114.17102Q84.815765 114.69446 85.95639 114.69446Q87.11264 114.69446 87.66733 114.22571Q88.222015 113.75696 88.222015 113.13196Q88.222015 112.56946 87.73764 112.24133Q87.39389 112.02258 86.034515 111.67883Q84.190765 111.21008 83.47983 110.874146Q82.76889 110.53821 82.4017 109.936646Q82.034515 109.33508 82.034515 108.61633Q82.034515 107.96008 82.3392 107.39758Q82.64389 106.83508 83.159515 106.46008Q83.55014 106.17883 84.222015 105.97571Q84.89389 105.77258 85.659515 105.77258Q86.83139 105.77258 87.70639 106.10852Q88.58139 106.44446 88.99545 107.01477Q89.409515 107.58508 89.565765 108.53821L87.940765 108.75696Q87.83139 108.00696 87.29233 107.57727Q86.753265 107.14758 85.784515 107.14758Q84.628265 107.14758 84.14389 107.530396Q83.659515 107.91321 83.659515 108.41321Q83.659515 108.74133 83.86264 109.00696Q84.065765 109.27258 84.503265 109.44446Q84.753265 109.53821 85.972015 109.88196Q87.73764 110.35071 88.440765 110.64758Q89.14389 110.94446 89.54233 111.52258Q89.940765 112.10071 89.940765 112.96008Q89.940765 113.78821 89.45639 114.530396Q88.972015 115.27258 88.05014 115.67102Q87.128265 116.06946 85.972015 116.06946Q84.05014 116.06946 83.04233 115.27258Q82.034515 114.47571 81.753265 112.91321ZM91.128265 110.92883Q91.128265 108.19446 92.659515 106.86633Q93.92514 105.77258 95.753265 105.77258Q97.784515 105.77258 99.07358 107.10852Q100.36264 108.44446 100.36264 110.78821Q100.36264 112.69446 99.79233 113.780396Q99.222015 114.86633 98.13608 115.467896Q97.05014 116.06946 95.753265 116.06946Q93.690765 116.06946 92.409515 114.74133Q91.128265 113.41321 91.128265 110.92883ZM92.847015 110.92883Q92.847015 112.81946 93.67514 113.75696Q94.503265 114.69446 95.753265 114.69446Q97.003265 114.69446 97.82358 113.749146Q98.64389 112.80383 98.64389 110.86633Q98.64389 109.03821 97.815765 108.10071Q96.98764 107.16321 95.753265 107.16321Q94.503265 107.16321 93.67514 108.10071Q92.847015 109.03821 92.847015 110.92883ZM102.11264 115.85071L102.11264 105.99133L103.61264 105.99133L103.61264 107.49133Q104.190765 106.44446 104.67514 106.10852Q105.159515 105.77258 105.753265 105.77258Q106.597015 105.77258 107.472015 106.31946L106.89389 107.86633Q106.284515 107.50696 105.659515 107.50696Q105.11264 107.50696 104.68295 107.83508Q104.253265 108.16321 104.065765 108.74133Q103.784515 109.63196 103.784515 110.69446L103.784515 115.85071L102.11264 115.85071ZM119.92514 115.85071L119.92514 114.60071Q118.98764 116.06946 117.17514 116.06946Q116.003265 116.06946 115.01108 115.42102Q114.01889 114.77258 113.47983 113.60852Q112.940765 112.44446 112.940765 110.92883Q112.940765 109.46008 113.43295 108.25696Q113.92514 107.05383 114.9017 106.41321Q115.878265 105.77258 117.097015 105.77258Q117.98764 105.77258 118.68295 106.14758Q119.378265 106.52258 119.815765 107.13196L119.815765 102.25696L121.472015 102.25696L121.472015 115.85071L119.92514 115.85071ZM114.64389 110.92883Q114.64389 112.81946 115.44858 113.75696Q116.253265 114.69446 117.33139 114.69446Q118.42514 114.69446 119.190765 113.80383Q119.95639 112.91321 119.95639 111.06946Q119.95639 109.05383 119.17514 108.10852Q118.39389 107.16321 117.253265 107.16321Q116.14389 107.16321 115.39389 108.06946Q114.64389 108.97571 114.64389 110.92883ZM130.34702 114.63196Q129.40952 115.42883 128.55014 115.749146Q127.690765 116.06946 126.70639 116.06946Q125.097015 116.06946 124.222015 115.280396Q123.347015 114.49133 123.347015 113.25696Q123.347015 112.52258 123.67514 111.92883Q124.003265 111.33508 124.534515 110.97571Q125.065765 110.61633 125.73764 110.42883Q126.23764 110.28821 127.222015 110.17883Q129.25327 109.92883 130.20639 109.60071Q130.20639 109.25696 130.20639 109.16321Q130.20639 108.14758 129.73764 107.72571Q129.09702 107.16321 127.83139 107.16321Q126.659515 107.16321 126.097015 107.56946Q125.534515 107.97571 125.26889 109.03821L123.628265 108.80383Q123.86264 107.75696 124.37045 107.11633Q124.878265 106.47571 125.8392 106.124146Q126.80014 105.77258 128.08139 105.77258Q129.34702 105.77258 130.12827 106.06946Q130.90952 106.36633 131.28452 106.81946Q131.65952 107.27258 131.80014 107.96008Q131.89389 108.38196 131.89389 109.49133L131.89389 111.72571Q131.89389 114.05383 131.99545 114.67102Q132.09702 115.28821 132.42514 115.85071L130.67514 115.85071Q130.40952 115.33508 130.34702 114.63196ZM130.20639 110.91321Q129.30014 111.27258 127.472015 111.53821Q126.440765 111.67883 126.01889 111.86633Q125.597015 112.05383 125.36264 112.41321Q125.128265 112.77258 125.128265 113.21008Q125.128265 113.88196 125.63608 114.32727Q126.14389 114.77258 127.11264 114.77258Q128.08139 114.77258 128.83139 114.342896Q129.58139 113.91321 129.94077 113.19446Q130.20639 112.61633 130.20639 111.52258L130.20639 110.91321ZM137.94077 114.35071L138.17514 115.83508Q137.47202 115.97571 136.90952 115.97571Q136.00327 115.97571 135.50327 115.686646Q135.00327 115.39758 134.80014 114.936646Q134.59702 114.47571 134.59702 112.96008L134.59702 107.30383L133.36264 107.30383L133.36264 105.99133L134.59702 105.99133L134.59702 103.55383L136.25327 102.55383L136.25327 105.99133L137.94077 105.99133L137.94077 107.30383L136.25327 107.30383L136.25327 113.05383Q136.25327 113.77258 136.3392 113.97571Q136.42514 114.17883 136.62827 114.30383Q136.83139 114.42883 137.20639 114.42883Q137.47202 114.42883 137.94077 114.35071ZM145.89389 114.63196Q144.95639 115.42883 144.09702 115.749146Q143.23764 116.06946 142.25327 116.06946Q140.64389 116.06946 139.76889 115.280396Q138.89389 114.49133 138.89389 113.25696Q138.89389 112.52258 139.22202 111.92883Q139.55014 111.33508 140.08139 110.97571Q140.61264 110.61633 141.28452 110.42883Q141.78452 110.28821 142.76889 110.17883Q144.80014 109.92883 145.75327 109.60071Q145.75327 109.25696 145.75327 109.16321Q145.75327 108.14758 145.28452 107.72571Q144.64389 107.16321 143.37827 107.16321Q142.20639 107.16321 141.64389 107.56946Q141.08139 107.97571 140.81577 109.03821L139.17514 108.80383Q139.40952 107.75696 139.91733 107.11633Q140.42514 106.47571 141.38608 106.124146Q142.34702 105.77258 143.62827 105.77258Q144.89389 105.77258 145.67514 106.06946Q146.45639 106.36633 146.83139 106.81946Q147.20639 107.27258 147.34702 107.96008Q147.44077 108.38196 147.44077 109.49133L147.44077 111.72571Q147.44077 114.05383 147.54233 114.67102Q147.64389 115.28821 147.97202 115.85071L146.22202 115.85071Q145.95639 115.33508 145.89389 114.63196ZM145.75327 110.91321Q144.84702 111.27258 143.01889 111.53821Q141.98764 111.67883 141.56577 111.86633Q141.14389 112.05383 140.90952 112.41321Q140.67514 112.77258 140.67514 113.21008Q140.67514 113.88196 141.18295 114.32727Q141.69077 114.77258 142.65952 114.77258Q143.62827 114.77258 144.37827 114.342896Q145.12827 113.91321 145.48764 113.19446Q145.75327 112.61633 145.75327 111.52258L145.75327 110.91321Z" fill-rule="nonzero" fill="#000000"></path><path d="M485.4042 214.05511L708.11285 379.47244" fill-rule="nonzero" stroke="#073763" stroke-width="2.0" stroke-linejoin="round" stroke-linecap="butt"></path><path d="M406.48605 526.5276L725.41516 385.96063" fill-rule="nonzero" stroke="#073763" stroke-width="2.0" stroke-linejoin="round" stroke-linecap="butt"></path><path d="M678.4908 314.7998L860.9475 314.7998L860.9475 454.04388L678.4908 454.04388Z" fill-rule="nonzero" fill="#d9ead3" stroke="#073763" stroke-width="2.0" stroke-linejoin="round" stroke-linecap="butt"></path><path d="M706.89703 390.90918L706.89703 377.31543L712.02203 377.31543Q713.3814 377.31543 714.10016 377.44043Q715.10016 377.6123 715.77203 378.08105Q716.4439 378.5498 716.858 379.39355Q717.27203 380.2373 717.27203 381.2373Q717.27203 382.97168 716.1705 384.1748Q715.0689 385.37793 712.1783 385.37793L708.6939 385.37793L708.6939 390.90918L706.89703 390.90918ZM708.6939 383.76855L712.20953 383.76855Q713.95953 383.76855 714.6861 383.12012Q715.41266 382.47168 715.41266 381.2998Q715.41266 380.44043 714.983 379.83105Q714.5533 379.22168 713.85016 379.03418Q713.39703 378.90918 712.1783 378.90918L708.6939 378.90918L708.6939 383.76855ZM719.10016 390.90918L719.10016 377.31543L720.77203 377.31543L720.77203 390.90918L719.10016 390.90918ZM729.70953 389.69043Q728.77203 390.4873 727.91266 390.80762Q727.0533 391.12793 726.0689 391.12793Q724.45953 391.12793 723.58453 390.33887Q722.70953 389.5498 722.70953 388.31543Q722.70953 387.58105 723.03766 386.9873Q723.3658 386.39355 723.89703 386.03418Q724.4283 385.6748 725.10016 385.4873Q725.60016 385.34668 726.58453 385.2373Q728.6158 384.9873 729.5689 384.65918Q729.5689 384.31543 729.5689 384.22168Q729.5689 383.20605 729.10016 382.78418Q728.45953 382.22168 727.1939 382.22168Q726.02203 382.22168 725.45953 382.62793Q724.89703 383.03418 724.6314 384.09668L722.9908 383.8623Q723.22516 382.81543 723.733 382.1748Q724.2408 381.53418 725.2017 381.18262Q726.16266 380.83105 727.4439 380.83105Q728.70953 380.83105 729.4908 381.12793Q730.27203 381.4248 730.64703 381.87793Q731.02203 382.33105 731.16266 383.01855Q731.2564 383.44043 731.2564 384.5498L731.2564 386.78418Q731.2564 389.1123 731.358 389.7295Q731.45953 390.34668 731.78766 390.90918L730.03766 390.90918Q729.77203 390.39355 729.70953 389.69043ZM729.5689 385.97168Q728.66266 386.33105 726.83453 386.59668Q725.8033 386.7373 725.3814 386.9248Q724.95953 387.1123 724.72516 387.47168Q724.4908 387.83105 724.4908 388.26855Q724.4908 388.94043 724.9986 389.38574Q725.5064 389.83105 726.47516 389.83105Q727.4439 389.83105 728.1939 389.40137Q728.9439 388.97168 729.3033 388.25293Q729.5689 387.6748 729.5689 386.58105L729.5689 385.97168ZM740.08453 387.2998L741.72516 387.51855Q741.45953 389.20605 740.35016 390.167Q739.2408 391.12793 737.6158 391.12793Q735.60016 391.12793 734.3736 389.80762Q733.14703 388.4873 733.14703 386.01855Q733.14703 384.4248 733.6705 383.2295Q734.1939 382.03418 735.27985 381.43262Q736.3658 380.83105 737.6314 380.83105Q739.2408 380.83105 740.2564 381.64355Q741.27203 382.45605 741.5689 383.95605L739.9439 384.20605Q739.70953 383.20605 739.1158 382.70605Q738.52203 382.20605 737.6939 382.20605Q736.4283 382.20605 735.6392 383.1123Q734.85016 384.01855 734.85016 385.97168Q734.85016 387.95605 735.6158 388.8545Q736.3814 389.75293 737.60016 389.75293Q738.58453 389.75293 739.2408 389.15137Q739.89703 388.5498 740.08453 387.2998ZM749.72516 387.7373L751.4439 387.95605Q751.03766 389.45605 749.9361 390.292Q748.83453 391.12793 747.1158 391.12793Q744.95953 391.12793 743.6939 389.7998Q742.4283 388.47168 742.4283 386.06543Q742.4283 383.58105 743.7017 382.20605Q744.97516 380.83105 747.02203 380.83105Q749.0064 380.83105 750.2564 382.1748Q751.5064 383.51855 751.5064 385.97168Q751.5064 386.1123 751.4908 386.40918L744.14703 386.40918Q744.2408 388.03418 745.0689 388.89355Q745.89703 389.75293 747.1314 389.75293Q748.03766 389.75293 748.6861 389.27637Q749.33453 388.7998 749.72516 387.7373ZM744.2408 385.03418L749.7408 385.03418Q749.6314 383.7998 749.1158 383.1748Q748.3189 382.20605 747.03766 382.20605Q745.89703 382.20605 745.108 382.9795Q744.3189 383.75293 744.2408 385.03418ZM768.45953 386.14355L770.2564 386.59668Q769.6939 388.81543 768.22516 389.9795Q766.7564 391.14355 764.6314 391.14355Q762.4283 391.14355 761.0533 390.24512Q759.6783 389.34668 758.95953 387.65137Q758.2408 385.95605 758.2408 384.00293Q758.2408 381.87793 759.0455 380.2998Q759.85016 378.72168 761.35016 377.90137Q762.85016 377.08105 764.64703 377.08105Q766.6939 377.08105 768.08453 378.12012Q769.47516 379.15918 770.02203 381.03418L768.2564 381.45605Q767.78766 379.97168 766.8814 379.292Q765.97516 378.6123 764.6158 378.6123Q763.0533 378.6123 761.9986 379.3623Q760.9439 380.1123 760.5142 381.38574Q760.08453 382.65918 760.08453 384.00293Q760.08453 385.7373 760.59235 387.02637Q761.10016 388.31543 762.1705 388.95605Q763.2408 389.59668 764.47516 389.59668Q765.9908 389.59668 767.03766 388.7295Q768.08453 387.8623 768.45953 386.14355ZM771.97516 390.90918L771.97516 377.31543L773.64703 377.31543L773.64703 390.90918L771.97516 390.90918ZM782.58453 389.69043Q781.64703 390.4873 780.78766 390.80762Q779.9283 391.12793 778.9439 391.12793Q777.33453 391.12793 776.45953 390.33887Q775.58453 389.5498 775.58453 388.31543Q775.58453 387.58105 775.91266 386.9873Q776.2408 386.39355 776.77203 386.03418Q777.3033 385.6748 777.97516 385.4873Q778.47516 385.34668 779.45953 385.2373Q781.4908 384.9873 782.4439 384.65918Q782.4439 384.31543 782.4439 384.22168Q782.4439 383.20605 781.97516 382.78418Q781.33453 382.22168 780.0689 382.22168Q778.89703 382.22168 778.33453 382.62793Q777.77203 383.03418 777.5064 384.09668L775.8658 383.8623Q776.10016 382.81543 776.608 382.1748Q777.1158 381.53418 778.0767 381.18262Q779.03766 380.83105 780.3189 380.83105Q781.58453 380.83105 782.3658 381.12793Q783.14703 381.4248 783.52203 381.87793Q783.89703 382.33105 784.03766 383.01855Q784.1314 383.44043 784.1314 384.5498L784.1314 386.78418Q784.1314 389.1123 784.233 389.7295Q784.33453 390.34668 784.66266 390.90918L782.91266 390.90918Q782.64703 390.39355 782.58453 389.69043ZM782.4439 385.97168Q781.53766 386.33105 779.70953 386.59668Q778.6783 386.7373 778.2564 386.9248Q777.83453 387.1123 777.60016 387.47168Q777.3658 387.83105 777.3658 388.26855Q777.3658 388.94043 777.8736 389.38574Q778.3814 389.83105 779.35016 389.83105Q780.3189 389.83105 781.0689 389.40137Q781.8189 388.97168 782.1783 388.25293Q782.4439 387.6748 782.4439 386.58105L782.4439 385.97168ZM785.85016 387.97168L787.5064 387.70605Q787.64703 388.70605 788.27985 389.2295Q788.91266 389.75293 790.0533 389.75293Q791.20953 389.75293 791.7642 389.28418Q792.3189 388.81543 792.3189 388.19043Q792.3189 387.62793 791.83453 387.2998Q791.4908 387.08105 790.1314 386.7373Q788.28766 386.26855 787.5767 385.93262Q786.8658 385.59668 786.4986 384.99512Q786.1314 384.39355 786.1314 383.6748Q786.1314 383.01855 786.4361 382.45605Q786.7408 381.89355 787.2564 381.51855Q787.64703 381.2373 788.3189 381.03418Q788.9908 380.83105 789.7564 380.83105Q790.9283 380.83105 791.8033 381.167Q792.6783 381.50293 793.09235 382.07324Q793.5064 382.64355 793.66266 383.59668L792.03766 383.81543Q791.9283 383.06543 791.3892 382.63574Q790.85016 382.20605 789.8814 382.20605Q788.72516 382.20605 788.2408 382.58887Q787.7564 382.97168 787.7564 383.47168Q787.7564 383.7998 787.95953 384.06543Q788.16266 384.33105 788.60016 384.50293Q788.85016 384.59668 790.0689 384.94043Q791.83453 385.40918 792.53766 385.70605Q793.2408 386.00293 793.6392 386.58105Q794.03766 387.15918 794.03766 388.01855Q794.03766 388.84668 793.5533 389.58887Q793.0689 390.33105 792.14703 390.7295Q791.22516 391.12793 790.0689 391.12793Q788.14703 391.12793 787.1392 390.33105Q786.1314 389.53418 785.85016 387.97168ZM795.1783 387.97168L796.83453 387.70605Q796.97516 388.70605 797.608 389.2295Q798.2408 389.75293 799.3814 389.75293Q800.53766 389.75293 801.09235 389.28418Q801.64703 388.81543 801.64703 388.19043Q801.64703 387.62793 801.16266 387.2998Q800.8189 387.08105 799.45953 386.7373Q797.6158 386.26855 796.90485 385.93262Q796.1939 385.59668 795.8267 384.99512Q795.45953 384.39355 795.45953 383.6748Q795.45953 383.01855 795.7642 382.45605Q796.0689 381.89355 796.58453 381.51855Q796.97516 381.2373 797.64703 381.03418Q798.3189 380.83105 799.08453 380.83105Q800.2564 380.83105 801.1314 381.167Q802.0064 381.50293 802.4205 382.07324Q802.83453 382.64355 802.9908 383.59668L801.3658 383.81543Q801.2564 383.06543 800.71735 382.63574Q800.1783 382.20605 799.20953 382.20605Q798.0533 382.20605 797.5689 382.58887Q797.08453 382.97168 797.08453 383.47168Q797.08453 383.7998 797.28766 384.06543Q797.4908 384.33105 797.9283 384.50293Q798.1783 384.59668 799.39703 384.94043Q801.16266 385.40918 801.8658 385.70605Q802.5689 386.00293 802.96735 386.58105Q803.3658 387.15918 803.3658 388.01855Q803.3658 388.84668 802.8814 389.58887Q802.39703 390.33105 801.47516 390.7295Q800.5533 391.12793 799.39703 391.12793Q797.47516 391.12793 796.46735 390.33105Q795.45953 389.53418 795.1783 387.97168ZM805.1939 379.22168L805.1939 377.31543L806.8658 377.31543L806.8658 379.22168L805.1939 379.22168ZM805.1939 390.90918L805.1939 381.0498L806.8658 381.0498L806.8658 390.90918L805.1939 390.90918ZM809.72516 390.90918L809.72516 382.3623L808.2408 382.3623L808.2408 381.0498L809.72516 381.0498L809.72516 380.00293Q809.72516 379.01855 809.89703 378.53418Q810.1314 377.87793 810.7408 377.4795Q811.35016 377.08105 812.4439 377.08105Q813.14703 377.08105 814.0064 377.2373L813.7564 378.70605Q813.2408 378.6123 812.77203 378.6123Q812.0064 378.6123 811.6939 378.93262Q811.3814 379.25293 811.3814 380.14355L811.3814 381.0498L813.3033 381.0498L813.3033 382.3623L811.3814 382.3623L811.3814 390.90918L809.72516 390.90918ZM814.52203 379.22168L814.52203 377.31543L816.1939 377.31543L816.1939 379.22168L814.52203 379.22168ZM814.52203 390.90918L814.52203 381.0498L816.1939 381.0498L816.1939 390.90918L814.52203 390.90918ZM825.39703 387.7373L827.1158 387.95605Q826.70953 389.45605 825.608 390.292Q824.5064 391.12793 822.78766 391.12793Q820.6314 391.12793 819.3658 389.7998Q818.10016 388.47168 818.10016 386.06543Q818.10016 383.58105 819.3736 382.20605Q820.64703 380.83105 822.6939 380.83105Q824.6783 380.83105 825.9283 382.1748Q827.1783 383.51855 827.1783 385.97168Q827.1783 386.1123 827.16266 386.40918L819.8189 386.40918Q819.91266 388.03418 820.7408 388.89355Q821.5689 389.75293 822.8033 389.75293Q823.70953 389.75293 824.358 389.27637Q825.0064 388.7998 825.39703 387.7373ZM819.91266 385.03418L825.41266 385.03418Q825.3033 383.7998 824.78766 383.1748Q823.9908 382.20605 822.70953 382.20605Q821.5689 382.20605 820.77985 382.9795Q819.9908 383.75293 819.91266 385.03418ZM829.0064 390.90918L829.0064 381.0498L830.5064 381.0498L830.5064 382.5498Q831.08453 381.50293 831.5689 381.167Q832.0533 380.83105 832.64703 380.83105Q833.4908 380.83105 834.3658 381.37793L833.78766 382.9248Q833.1783 382.56543 832.5533 382.56543Q832.0064 382.56543 831.5767 382.89355Q831.14703 383.22168 830.95953 383.7998Q830.6783 384.69043 830.6783 385.75293L830.6783 390.90918L829.0064 390.90918Z" fill-rule="nonzero" fill="#000000"></path><path d="M343.34622 151.4672L509.8974 151.4672L509.8974 272.3176L343.34622 272.3176Z" fill-rule="nonzero" fill="#d9ead3" stroke="#073763" stroke-width="2.0" stroke-linejoin="round" stroke-linecap="butt"></path><path d="M392.8306 207.88907L392.8306 194.29532L397.9556 194.29532Q399.31497 194.29532 400.03372 194.42032Q401.03372 194.5922 401.7056 195.06094Q402.37747 195.5297 402.79153 196.37344Q403.2056 197.2172 403.2056 198.2172Q403.2056 199.95157 402.10403 201.1547Q401.00247 202.35782 398.11185 202.35782L394.62747 202.35782L394.62747 207.88907L392.8306 207.88907ZM394.62747 200.74844L398.1431 200.74844Q399.8931 200.74844 400.61966 200.1Q401.34622 199.45157 401.34622 198.2797Q401.34622 197.42032 400.91653 196.81094Q400.48685 196.20157 399.78372 196.01407Q399.3306 195.88907 398.11185 195.88907L394.62747 195.88907L394.62747 200.74844ZM405.03372 207.88907L405.03372 198.0297L406.53372 198.0297L406.53372 199.5297Q407.11185 198.48282 407.59622 198.14688Q408.0806 197.81094 408.67435 197.81094Q409.5181 197.81094 410.3931 198.35782L409.81497 199.9047Q409.2056 199.54532 408.5806 199.54532Q408.03372 199.54532 407.60403 199.87344Q407.17435 200.20157 406.98685 200.7797Q406.7056 201.67032 406.7056 202.73282L406.7056 207.88907L405.03372 207.88907ZM410.6431 202.9672Q410.6431 200.23282 412.17435 198.9047Q413.43997 197.81094 415.2681 197.81094Q417.29935 197.81094 418.5884 199.14688Q419.87747 200.48282 419.87747 202.82657Q419.87747 204.73282 419.30716 205.81876Q418.73685 206.9047 417.6509 207.50626Q416.56497 208.10782 415.2681 208.10782Q413.2056 208.10782 411.92435 206.7797Q410.6431 205.45157 410.6431 202.9672ZM412.36185 202.9672Q412.36185 204.85782 413.18997 205.79532Q414.0181 206.73282 415.2681 206.73282Q416.5181 206.73282 417.3384 205.7875Q418.15872 204.8422 418.15872 202.9047Q418.15872 201.07657 417.3306 200.13907Q416.50247 199.20157 415.2681 199.20157Q414.0181 199.20157 413.18997 200.13907Q412.36185 201.07657 412.36185 202.9672ZM421.6431 211.67032L421.6431 198.0297L423.17435 198.0297L423.17435 199.31094Q423.7056 198.56094 424.38528 198.18594Q425.06497 197.81094 426.0181 197.81094Q427.28372 197.81094 428.25247 198.45938Q429.22122 199.10782 429.7134 200.29532Q430.2056 201.48282 430.2056 202.88907Q430.2056 204.4047 429.65872 205.61563Q429.11185 206.82657 428.0806 207.4672Q427.04935 208.10782 425.90872 208.10782Q425.06497 208.10782 424.4009 207.75626Q423.73685 207.4047 423.31497 206.87344L423.31497 211.67032L421.6431 211.67032ZM423.15872 203.01407Q423.15872 204.92032 423.93216 205.82657Q424.7056 206.73282 425.79935 206.73282Q426.90872 206.73282 427.69778 205.79532Q428.48685 204.85782 428.48685 202.87344Q428.48685 200.99844 427.7134 200.06094Q426.93997 199.12344 425.86185 199.12344Q424.79935 199.12344 423.97903 200.12344Q423.15872 201.12344 423.15872 203.01407ZM438.7681 204.7172L440.48685 204.93594Q440.0806 206.43594 438.97903 207.27188Q437.87747 208.10782 436.15872 208.10782Q434.00247 208.10782 432.73685 206.7797Q431.47122 205.45157 431.47122 203.04532Q431.47122 200.56094 432.74466 199.18594Q434.0181 197.81094 436.06497 197.81094Q438.04935 197.81094 439.29935 199.1547Q440.54935 200.49844 440.54935 202.95157Q440.54935 203.0922 440.53372 203.38907L433.18997 203.38907Q433.28372 205.01407 434.11185 205.87344Q434.93997 206.73282 436.17435 206.73282Q437.0806 206.73282 437.72903 206.25626Q438.37747 205.7797 438.7681 204.7172ZM433.28372 202.01407L438.78372 202.01407Q438.67435 200.7797 438.15872 200.1547Q437.36185 199.18594 436.0806 199.18594Q434.93997 199.18594 434.1509 199.95938Q433.36185 200.73282 433.28372 202.01407ZM442.37747 207.88907L442.37747 198.0297L443.87747 198.0297L443.87747 199.5297Q444.4556 198.48282 444.93997 198.14688Q445.42435 197.81094 446.0181 197.81094Q446.86185 197.81094 447.73685 198.35782L447.15872 199.9047Q446.54935 199.54532 445.92435 199.54532Q445.37747 199.54532 444.94778 199.87344Q444.5181 200.20157 444.3306 200.7797Q444.04935 201.67032 444.04935 202.73282L444.04935 207.88907L442.37747 207.88907ZM452.2681 206.38907L452.50247 207.87344Q451.79935 208.01407 451.23685 208.01407Q450.3306 208.01407 449.8306 207.725Q449.3306 207.43594 449.12747 206.975Q448.92435 206.51407 448.92435 204.99844L448.92435 199.3422L447.68997 199.3422L447.68997 198.0297L448.92435 198.0297L448.92435 195.5922L450.5806 194.5922L450.5806 198.0297L452.2681 198.0297L452.2681 199.3422L450.5806 199.3422L450.5806 205.0922Q450.5806 205.81094 450.66653 206.01407Q450.75247 206.2172 450.9556 206.3422Q451.15872 206.4672 451.53372 206.4672Q451.79935 206.4672 452.2681 206.38907ZM453.7056 211.68594L453.53372 210.12344Q454.0806 210.26407 454.48685 210.26407Q455.03372 210.26407 455.36966 210.07657Q455.7056 209.88907 455.92435 209.56094Q456.0806 209.31094 456.42435 208.31094Q456.47122 208.17032 456.5806 207.9047L452.84622 198.0297L454.6431 198.0297L456.68997 203.74844Q457.09622 204.82657 457.40872 206.0297Q457.68997 204.87344 458.09622 203.7797L460.18997 198.0297L461.86185 198.0297L458.11185 208.06094Q457.5181 209.68594 457.17435 210.29532Q456.73685 211.12344 456.15872 211.50626Q455.5806 211.88907 454.78372 211.88907Q454.29935 211.88907 453.7056 211.68594Z" fill-rule="nonzero" fill="#000000"></path><path d="M399.42435 224.12344L401.22122 224.57657Q400.65872 226.79532 399.18997 227.95938Q397.72122 229.12344 395.59622 229.12344Q393.3931 229.12344 392.0181 228.225Q390.6431 227.32657 389.92435 225.63126Q389.2056 223.93594 389.2056 221.98282Q389.2056 219.85782 390.01028 218.2797Q390.81497 216.70157 392.31497 215.88126Q393.81497 215.06094 395.61185 215.06094Q397.65872 215.06094 399.04935 216.1Q400.43997 217.13907 400.98685 219.01407L399.22122 219.43594Q398.75247 217.95157 397.84622 217.27188Q396.93997 216.5922 395.5806 216.5922Q394.0181 216.5922 392.9634 217.3422Q391.90872 218.0922 391.47903 219.36563Q391.04935 220.63907 391.04935 221.98282Q391.04935 223.7172 391.55716 225.00626Q392.06497 226.29532 393.13528 226.93594Q394.2056 227.57657 395.43997 227.57657Q396.9556 227.57657 398.00247 226.70938Q399.04935 225.8422 399.42435 224.12344ZM402.9556 228.88907L402.9556 215.29532L404.62747 215.29532L404.62747 228.88907L402.9556 228.88907ZM413.56497 227.67032Q412.62747 228.4672 411.7681 228.7875Q410.90872 229.10782 409.92435 229.10782Q408.31497 229.10782 407.43997 228.31876Q406.56497 227.5297 406.56497 226.29532Q406.56497 225.56094 406.8931 224.9672Q407.22122 224.37344 407.75247 224.01407Q408.28372 223.6547 408.9556 223.4672Q409.4556 223.32657 410.43997 223.2172Q412.47122 222.9672 413.42435 222.63907Q413.42435 222.29532 413.42435 222.20157Q413.42435 221.18594 412.9556 220.76407Q412.31497 220.20157 411.04935 220.20157Q409.87747 220.20157 409.31497 220.60782Q408.75247 221.01407 408.48685 222.07657L406.84622 221.8422Q407.0806 220.79532 407.5884 220.1547Q408.09622 219.51407 409.05716 219.1625Q410.0181 218.81094 411.29935 218.81094Q412.56497 218.81094 413.34622 219.10782Q414.12747 219.4047 414.50247 219.85782Q414.87747 220.31094 415.0181 220.99844Q415.11185 221.42032 415.11185 222.5297L415.11185 224.76407Q415.11185 227.0922 415.2134 227.70938Q415.31497 228.32657 415.6431 228.88907L413.8931 228.88907Q413.62747 228.37344 413.56497 227.67032ZM413.42435 223.95157Q412.5181 224.31094 410.68997 224.57657Q409.65872 224.7172 409.23685 224.9047Q408.81497 225.0922 408.5806 225.45157Q408.34622 225.81094 408.34622 226.24844Q408.34622 226.92032 408.85403 227.36563Q409.36185 227.81094 410.3306 227.81094Q411.29935 227.81094 412.04935 227.38126Q412.79935 226.95157 413.15872 226.23282Q413.42435 225.6547 413.42435 224.56094L413.42435 223.95157ZM416.8306 225.95157L418.48685 225.68594Q418.62747 226.68594 419.26028 227.20938Q419.8931 227.73282 421.03372 227.73282Q422.18997 227.73282 422.74466 227.26407Q423.29935 226.79532 423.29935 226.17032Q423.29935 225.60782 422.81497 225.2797Q422.47122 225.06094 421.11185 224.7172Q419.2681 224.24844 418.55716 223.9125Q417.84622 223.57657 417.47903 222.975Q417.11185 222.37344 417.11185 221.6547Q417.11185 220.99844 417.41653 220.43594Q417.72122 219.87344 418.23685 219.49844Q418.62747 219.2172 419.29935 219.01407Q419.97122 218.81094 420.73685 218.81094Q421.90872 218.81094 422.78372 219.14688Q423.65872 219.48282 424.07278 220.05313Q424.48685 220.62344 424.6431 221.57657L423.0181 221.79532Q422.90872 221.04532 422.36966 220.61563Q421.8306 220.18594 420.86185 220.18594Q419.7056 220.18594 419.22122 220.56876Q418.73685 220.95157 418.73685 221.45157Q418.73685 221.7797 418.93997 222.04532Q419.1431 222.31094 419.5806 222.48282Q419.8306 222.57657 421.04935 222.92032Q422.81497 223.38907 423.5181 223.68594Q424.22122 223.98282 424.61966 224.56094Q425.0181 225.13907 425.0181 225.99844Q425.0181 226.82657 424.53372 227.56876Q424.04935 228.31094 423.12747 228.70938Q422.2056 229.10782 421.04935 229.10782Q419.12747 229.10782 418.11966 228.31094Q417.11185 227.51407 416.8306 225.95157ZM426.15872 225.95157L427.81497 225.68594Q427.9556 226.68594 428.5884 227.20938Q429.22122 227.73282 430.36185 227.73282Q431.5181 227.73282 432.07278 227.26407Q432.62747 226.79532 432.62747 226.17032Q432.62747 225.60782 432.1431 225.2797Q431.79935 225.06094 430.43997 224.7172Q428.59622 224.24844 427.88528 223.9125Q427.17435 223.57657 426.80716 222.975Q426.43997 222.37344 426.43997 221.6547Q426.43997 220.99844 426.74466 220.43594Q427.04935 219.87344 427.56497 219.49844Q427.9556 219.2172 428.62747 219.01407Q429.29935 218.81094 430.06497 218.81094Q431.23685 218.81094 432.11185 219.14688Q432.98685 219.48282 433.4009 220.05313Q433.81497 220.62344 433.97122 221.57657L432.34622 221.79532Q432.23685 221.04532 431.69778 220.61563Q431.15872 220.18594 430.18997 220.18594Q429.03372 220.18594 428.54935 220.56876Q428.06497 220.95157 428.06497 221.45157Q428.06497 221.7797 428.2681 222.04532Q428.47122 222.31094 428.90872 222.48282Q429.15872 222.57657 430.37747 222.92032Q432.1431 223.38907 432.84622 223.68594Q433.54935 223.98282 433.94778 224.56094Q434.34622 225.13907 434.34622 225.99844Q434.34622 226.82657 433.86185 227.56876Q433.37747 228.31094 432.4556 228.70938Q431.53372 229.10782 430.37747 229.10782Q428.4556 229.10782 427.44778 228.31094Q426.43997 227.51407 426.15872 225.95157ZM436.17435 217.20157L436.17435 215.29532L437.84622 215.29532L437.84622 217.20157L436.17435 217.20157ZM436.17435 228.88907L436.17435 219.0297L437.84622 219.0297L437.84622 228.88907L436.17435 228.88907ZM440.7056 228.88907L440.7056 220.3422L439.22122 220.3422L439.22122 219.0297L440.7056 219.0297L440.7056 217.98282Q440.7056 216.99844 440.87747 216.51407Q441.11185 215.85782 441.72122 215.45938Q442.3306 215.06094 443.42435 215.06094Q444.12747 215.06094 444.98685 215.2172L444.73685 216.68594Q444.22122 216.5922 443.75247 216.5922Q442.98685 216.5922 442.67435 216.9125Q442.36185 217.23282 442.36185 218.12344L442.36185 219.0297L444.28372 219.0297L444.28372 220.3422L442.36185 220.3422L442.36185 228.88907L440.7056 228.88907ZM445.50247 217.20157L445.50247 215.29532L447.17435 215.29532L447.17435 217.20157L445.50247 217.20157ZM445.50247 228.88907L445.50247 219.0297L447.17435 219.0297L447.17435 228.88907L445.50247 228.88907ZM456.37747 225.7172L458.09622 225.93594Q457.68997 227.43594 456.5884 228.27188Q455.48685 229.10782 453.7681 229.10782Q451.61185 229.10782 450.34622 227.7797Q449.0806 226.45157 449.0806 224.04532Q449.0806 221.56094 450.35403 220.18594Q451.62747 218.81094 453.67435 218.81094Q455.65872 218.81094 456.90872 220.1547Q458.15872 221.49844 458.15872 223.95157Q458.15872 224.0922 458.1431 224.38907L450.79935 224.38907Q450.8931 226.01407 451.72122 226.87344Q452.54935 227.73282 453.78372 227.73282Q454.68997 227.73282 455.3384 227.25626Q455.98685 226.7797 456.37747 225.7172ZM450.8931 223.01407L456.3931 223.01407Q456.28372 221.7797 455.7681 221.1547Q454.97122 220.18594 453.68997 220.18594Q452.54935 220.18594 451.76028 220.95938Q450.97122 221.73282 450.8931 223.01407ZM459.98685 228.88907L459.98685 219.0297L461.48685 219.0297L461.48685 220.5297Q462.06497 219.48282 462.54935 219.14688Q463.03372 218.81094 463.62747 218.81094Q464.47122 218.81094 465.34622 219.35782L464.7681 220.9047Q464.15872 220.54532 463.53372 220.54532Q462.98685 220.54532 462.55716 220.87344Q462.12747 221.20157 461.93997 221.7797Q461.65872 222.67032 461.65872 223.73282L461.65872 228.88907L459.98685 228.88907Z" fill-rule="nonzero" fill="#000000"></path></svg>

