<?xml version="1.0" standalone="yes"?>

<svg version="1.1" viewBox="0.0 0.0 960.0 720.0" fill="none" stroke="none" stroke-linecap="square" stroke-miterlimit="10" xmlns="http://www.w3.org/2000/svg" xmlns:xlink="http://www.w3.org/1999/xlink"><path d="M280.3176 489.5092L279.18372 402.80054" fill-rule="nonzero" stroke="#073763" stroke-width="2.0" stroke-linejoin="round" stroke-linecap="butt"></path><path d="M280.3176 368.58267L279.18372 281.87402" fill-rule="nonzero" stroke="#073763" stroke-width="2.0" stroke-linejoin="round" stroke-linecap="butt"></path><path d="M509.73752 357.19946L508.60367 270.4908" fill-rule="nonzero" stroke="#073763" stroke-width="2.0" stroke-linejoin="round" stroke-linecap="butt"></path><path d="M508.60367 489.5092L507.46982 402.80054" fill-rule="nonzero" stroke="#073763" stroke-width="2.0" stroke-linejoin="round" stroke-linecap="butt"></path><path d="M155.86613 474.625L155.86613 474.625C155.86613 465.78827 163.02972 458.62466 171.86646 458.62466L622.66895 458.62466C626.91254 458.62466 630.98224 460.31042 633.9829 463.31107C636.9835 466.3117 638.6693 470.38144 638.6693 474.625L638.6693 538.6243C638.6693 547.46106 631.5057 554.6247 622.66895 554.6247L171.86646 554.6247L171.86646 554.6247C163.02972 554.6247 155.86613 547.46106 155.86613 538.6243Z" fill-rule="nonzero" fill="#cfe2f3" stroke="#073763" stroke-width="2.0" stroke-linejoin="round" stroke-linecap="butt"></path><path d="M342.6306 508.7485L344.3181 508.60788Q344.4431 509.6235 344.8806 510.27975Q345.3181 510.936 346.2478 511.34225Q347.1775 511.7485 348.33374 511.7485Q349.365 511.7485 350.15405 511.436Q350.9431 511.1235 351.33374 510.59225Q351.72437 510.061 351.72437 509.436Q351.72437 508.79538 351.34937 508.31882Q350.97437 507.84225 350.115 507.51413Q349.5681 507.29538 347.6931 506.85007Q345.8181 506.40475 345.0681 505.9985Q344.09937 505.48288 343.6228 504.73288Q343.14624 503.98288 343.14624 503.04538Q343.14624 502.01413 343.73218 501.1157Q344.3181 500.21725 345.4353 499.75632Q346.5525 499.29538 347.9275 499.29538Q349.4431 499.29538 350.59937 499.77975Q351.7556 500.26413 352.3728 501.20944Q352.99 502.15475 353.03687 503.35788L351.3181 503.48288Q351.1775 502.20163 350.3728 501.53757Q349.5681 500.8735 348.0056 500.8735Q346.3806 500.8735 345.6306 501.47507Q344.8806 502.07663 344.8806 502.92038Q344.8806 503.65475 345.41187 504.1235Q345.9275 504.59225 348.1228 505.09225Q350.3181 505.59225 351.1306 505.96725Q352.3181 506.51413 352.88843 507.35007Q353.45874 508.186 353.45874 509.27975Q353.45874 510.3735 352.83374 511.33444Q352.20874 512.2954 351.04468 512.82666Q349.8806 513.3579 348.4275 513.3579Q346.58374 513.3579 345.33374 512.81885Q344.08374 512.2798 343.3728 511.20163Q342.66187 510.1235 342.6306 508.7485ZM362.22437 509.95163L363.9431 510.17038Q363.53687 511.67038 362.4353 512.50635Q361.33374 513.3423 359.615 513.3423Q357.45874 513.3423 356.1931 512.01416Q354.9275 510.686 354.9275 508.27975Q354.9275 505.79538 356.20093 504.42038Q357.47437 503.04538 359.52124 503.04538Q361.5056 503.04538 362.7556 504.38913Q364.0056 505.73288 364.0056 508.186Q364.0056 508.32663 363.99 508.6235L356.64624 508.6235Q356.74 510.2485 357.5681 511.10788Q358.39624 511.96725 359.6306 511.96725Q360.53687 511.96725 361.1853 511.4907Q361.83374 511.01413 362.22437 509.95163ZM356.74 507.2485L362.24 507.2485Q362.1306 506.01413 361.615 505.38913Q360.8181 504.42038 359.53687 504.42038Q358.39624 504.42038 357.60718 505.19382Q356.8181 505.96725 356.74 507.2485ZM365.84937 513.12354L365.84937 503.26413L367.34937 503.26413L367.34937 504.67038Q368.4431 503.04538 370.49 503.04538Q371.3806 503.04538 372.1306 503.3657Q372.8806 503.686 373.2478 504.20944Q373.615 504.73288 373.77124 505.436Q373.865 505.90475 373.865 507.061L373.865 513.12354L372.1931 513.12354L372.1931 507.1235Q372.1931 506.10788 371.9978 505.60007Q371.8025 505.09225 371.3025 504.79538Q370.8025 504.4985 370.1306 504.4985Q369.0681 504.4985 368.29468 505.17038Q367.52124 505.84225 367.52124 507.7485L367.52124 513.12354L365.84937 513.12354ZM375.5525 510.186L377.20874 509.92038Q377.34937 510.92038 377.98218 511.44382Q378.615 511.96725 379.7556 511.96725Q380.91187 511.96725 381.46655 511.4985Q382.02124 511.02975 382.02124 510.40475Q382.02124 509.84225 381.53687 509.51413Q381.1931 509.29538 379.83374 508.95163Q377.99 508.48288 377.27905 508.14694Q376.5681 507.811 376.20093 507.20944Q375.83374 506.60788 375.83374 505.88913Q375.83374 505.23288 376.13843 504.67038Q376.4431 504.10788 376.95874 503.73288Q377.34937 503.45163 378.02124 503.2485Q378.6931 503.04538 379.45874 503.04538Q380.6306 503.04538 381.5056 503.38132Q382.3806 503.71725 382.79468 504.28757Q383.20874 504.85788 383.365 505.811L381.74 506.02975Q381.6306 505.27975 381.09155 504.85007Q380.5525 504.42038 379.58374 504.42038Q378.4275 504.42038 377.9431 504.8032Q377.45874 505.186 377.45874 505.686Q377.45874 506.01413 377.66187 506.27975Q377.865 506.54538 378.3025 506.71725Q378.5525 506.811 379.77124 507.15475Q381.53687 507.6235 382.24 507.92038Q382.9431 508.21725 383.34155 508.79538Q383.74 509.3735 383.74 510.23288Q383.74 511.061 383.2556 511.8032Q382.77124 512.5454 381.84937 512.94385Q380.9275 513.3423 379.77124 513.3423Q377.84937 513.3423 376.84155 512.5454Q375.83374 511.7485 375.5525 510.186ZM384.9275 508.20163Q384.9275 505.46725 386.45874 504.13913Q387.72437 503.04538 389.5525 503.04538Q391.58374 503.04538 392.8728 504.38132Q394.16187 505.71725 394.16187 508.061Q394.16187 509.96725 393.59155 511.0532Q393.02124 512.13916 391.9353 512.7407Q390.84937 513.3423 389.5525 513.3423Q387.49 513.3423 386.20874 512.01416Q384.9275 510.686 384.9275 508.20163ZM386.64624 508.20163Q386.64624 510.09225 387.47437 511.02975Q388.3025 511.96725 389.5525 511.96725Q390.8025 511.96725 391.6228 511.02194Q392.4431 510.07663 392.4431 508.13913Q392.4431 506.311 391.615 505.3735Q390.78687 504.436 389.5525 504.436Q388.3025 504.436 387.47437 505.3735Q386.64624 506.311 386.64624 508.20163ZM395.91187 513.12354L395.91187 503.26413L397.41187 503.26413L397.41187 504.76413Q397.99 503.71725 398.47437 503.38132Q398.95874 503.04538 399.5525 503.04538Q400.39624 503.04538 401.27124 503.59225L400.6931 505.13913Q400.08374 504.77975 399.45874 504.77975Q398.91187 504.77975 398.48218 505.10788Q398.0525 505.436 397.865 506.01413Q397.58374 506.90475 397.58374 507.96725L397.58374 513.12354L395.91187 513.12354ZM407.45874 513.12354L407.45874 499.52975L409.2556 499.52975L409.2556 511.51413L415.95874 511.51413L415.95874 513.12354L407.45874 513.12354ZM424.1306 511.90475Q423.1931 512.70166 422.33374 513.022Q421.47437 513.3423 420.49 513.3423Q418.8806 513.3423 418.0056 512.5532Q417.1306 511.76413 417.1306 510.52975Q417.1306 509.79538 417.45874 509.20163Q417.78687 508.60788 418.3181 508.2485Q418.84937 507.88913 419.52124 507.70163Q420.02124 507.561 421.0056 507.45163Q423.03687 507.20163 423.99 506.8735Q423.99 506.52975 423.99 506.436Q423.99 505.42038 423.52124 504.9985Q422.8806 504.436 421.615 504.436Q420.4431 504.436 419.8806 504.84225Q419.3181 505.2485 419.0525 506.311L417.41187 506.07663Q417.64624 505.02975 418.15405 504.38913Q418.66187 503.7485 419.6228 503.39694Q420.58374 503.04538 421.865 503.04538Q423.1306 503.04538 423.91187 503.34225Q424.6931 503.63913 425.0681 504.09225Q425.4431 504.54538 425.58374 505.23288Q425.6775 505.65475 425.6775 506.76413L425.6775 508.9985Q425.6775 511.32663 425.77905 511.94382Q425.8806 512.56104 426.20874 513.12354L424.45874 513.12354Q424.1931 512.6079 424.1306 511.90475ZM423.99 508.186Q423.08374 508.54538 421.2556 508.811Q420.22437 508.95163 419.8025 509.13913Q419.3806 509.32663 419.14624 509.686Q418.91187 510.04538 418.91187 510.48288Q418.91187 511.15475 419.41968 511.60007Q419.9275 512.0454 420.89624 512.0454Q421.865 512.0454 422.615 511.6157Q423.365 511.186 423.72437 510.46725Q423.99 509.88913 423.99 508.79538L423.99 508.186ZM427.99 516.9204L427.8181 515.3579Q428.365 515.49854 428.77124 515.49854Q429.3181 515.49854 429.65405 515.31104Q429.99 515.12354 430.20874 514.7954Q430.365 514.5454 430.70874 513.5454Q430.7556 513.4048 430.865 513.13916L427.1306 503.26413L428.9275 503.26413L430.97437 508.98288Q431.3806 510.061 431.6931 511.26413Q431.97437 510.10788 432.3806 509.01413L434.47437 503.26413L436.14624 503.26413L432.39624 513.2954Q431.8025 514.9204 431.45874 515.5298Q431.02124 516.3579 430.4431 516.7407Q429.865 517.12354 429.0681 517.12354Q428.58374 517.12354 427.99 516.9204ZM444.14624 509.95163L445.865 510.17038Q445.45874 511.67038 444.35718 512.50635Q443.2556 513.3423 441.53687 513.3423Q439.3806 513.3423 438.115 512.01416Q436.84937 510.686 436.84937 508.27975Q436.84937 505.79538 438.1228 504.42038Q439.39624 503.04538 441.4431 503.04538Q443.4275 503.04538 444.6775 504.38913Q445.9275 505.73288 445.9275 508.186Q445.9275 508.32663 445.91187 508.6235L438.5681 508.6235Q438.66187 510.2485 439.49 511.10788Q440.3181 511.96725 441.5525 511.96725Q442.45874 511.96725 443.10718 511.4907Q443.7556 511.01413 444.14624 509.95163ZM438.66187 507.2485L444.16187 507.2485Q444.0525 506.01413 443.53687 505.38913Q442.74 504.42038 441.45874 504.42038Q440.3181 504.42038 439.52905 505.19382Q438.74 505.96725 438.66187 507.2485ZM447.7556 513.12354L447.7556 503.26413L449.2556 503.26413L449.2556 504.76413Q449.83374 503.71725 450.3181 503.38132Q450.8025 503.04538 451.39624 503.04538Q452.24 503.04538 453.115 503.59225L452.53687 505.13913Q451.9275 504.77975 451.3025 504.77975Q450.7556 504.77975 450.32593 505.10788Q449.89624 505.436 449.70874 506.01413Q449.4275 506.90475 449.4275 507.96725L449.4275 513.12354L447.7556 513.12354Z" fill-rule="nonzero" fill="#000000"></path><path d="M162.71391 359.3809L162.71391 359.3809C162.71391 350.54416 169.8775 343.38058 178.71423 343.38058L368.9813 343.38058C373.22485 343.38058 377.2946 345.0663 380.29523 348.06696C383.2959 351.0676 384.98163 355.13736 384.98163 359.3809L384.98163 423.38025C384.98163 432.21698 377.81805 439.38058 368.9813 439.38058L178.71423 439.38058C169.8775 439.38058 162.71391 432.21698 162.71391 423.38025Z" fill-rule="nonzero" fill="#cfe2f3" stroke="#073763" stroke-width="2.0" stroke-linejoin="round" stroke-linecap="butt"></path><path d="M211.90024 393.1138L213.69711 393.56693Q213.13461 395.78568 211.66586 396.94974Q210.19711 398.1138 208.07211 398.1138Q205.86899 398.1138 204.49399 397.21536Q203.11899 396.31693 202.40024 394.6216Q201.68149 392.9263 201.68149 390.97318Q201.68149 388.84818 202.48618 387.27005Q203.29086 385.69193 204.79086 384.8716Q206.29086 384.0513 208.08774 384.0513Q210.13461 384.0513 211.52524 385.09036Q212.91586 386.12943 213.46274 388.00443L211.69711 388.4263Q211.22836 386.94193 210.32211 386.26224Q209.41586 385.58255 208.05649 385.58255Q206.49399 385.58255 205.4393 386.33255Q204.38461 387.08255 203.95493 388.356Q203.52524 389.62943 203.52524 390.97318Q203.52524 392.70755 204.03305 393.9966Q204.54086 395.28568 205.61118 395.9263Q206.68149 396.56693 207.91586 396.56693Q209.43149 396.56693 210.47836 395.69974Q211.52524 394.83255 211.90024 393.1138ZM221.88461 396.66068Q220.94711 397.45755 220.08774 397.77786Q219.22836 398.09818 218.24399 398.09818Q216.63461 398.09818 215.75961 397.3091Q214.88461 396.52005 214.88461 395.28568Q214.88461 394.5513 215.21274 393.95755Q215.54086 393.3638 216.07211 393.00443Q216.60336 392.64505 217.27524 392.45755Q217.77524 392.31693 218.75961 392.20755Q220.79086 391.95755 221.74399 391.62943Q221.74399 391.28568 221.74399 391.19193Q221.74399 390.1763 221.27524 389.75443Q220.63461 389.19193 219.36899 389.19193Q218.19711 389.19193 217.63461 389.59818Q217.07211 390.00443 216.80649 391.06693L215.16586 390.83255Q215.40024 389.78568 215.90805 389.14505Q216.41586 388.50443 217.3768 388.15286Q218.33774 387.8013 219.61899 387.8013Q220.88461 387.8013 221.66586 388.09818Q222.44711 388.39505 222.82211 388.84818Q223.19711 389.3013 223.33774 389.9888Q223.43149 390.41068 223.43149 391.52005L223.43149 393.75443Q223.43149 396.08255 223.53305 396.69974Q223.63461 397.31693 223.96274 397.87943L222.21274 397.87943Q221.94711 397.3638 221.88461 396.66068ZM221.74399 392.94193Q220.83774 393.3013 219.00961 393.56693Q217.97836 393.70755 217.55649 393.89505Q217.13461 394.08255 216.90024 394.44193Q216.66586 394.8013 216.66586 395.2388Q216.66586 395.91068 217.17368 396.356Q217.68149 396.8013 218.65024 396.8013Q219.61899 396.8013 220.36899 396.3716Q221.11899 395.94193 221.47836 395.22318Q221.74399 394.64505 221.74399 393.5513L221.74399 392.94193ZM229.49399 396.37943L229.72836 397.8638Q229.02524 398.00443 228.46274 398.00443Q227.55649 398.00443 227.05649 397.71536Q226.55649 397.4263 226.35336 396.96536Q226.15024 396.50443 226.15024 394.9888L226.15024 389.33255L224.91586 389.33255L224.91586 388.02005L226.15024 388.02005L226.15024 385.58255L227.80649 384.58255L227.80649 388.02005L229.49399 388.02005L229.49399 389.33255L227.80649 389.33255L227.80649 395.08255Q227.80649 395.8013 227.89243 396.00443Q227.97836 396.20755 228.18149 396.33255Q228.38461 396.45755 228.75961 396.45755Q229.02524 396.45755 229.49399 396.37943ZM237.75961 394.70755L239.47836 394.9263Q239.07211 396.4263 237.97055 397.26224Q236.86899 398.09818 235.15024 398.09818Q232.99399 398.09818 231.72836 396.77005Q230.46274 395.44193 230.46274 393.03568Q230.46274 390.5513 231.73618 389.1763Q233.00961 387.8013 235.05649 387.8013Q237.04086 387.8013 238.29086 389.14505Q239.54086 390.4888 239.54086 392.94193Q239.54086 393.08255 239.52524 393.37943L232.18149 393.37943Q232.27524 395.00443 233.10336 395.8638Q233.93149 396.72318 235.16586 396.72318Q236.07211 396.72318 236.72055 396.2466Q237.36899 395.77005 237.75961 394.70755ZM232.27524 392.00443L237.77524 392.00443Q237.66586 390.77005 237.15024 390.14505Q236.35336 389.1763 235.07211 389.1763Q233.93149 389.1763 233.14243 389.94974Q232.35336 390.72318 232.27524 392.00443ZM241.08774 398.69193L242.69711 398.94193Q242.80649 399.69193 243.27524 400.03568Q243.88461 400.4888 244.96274 400.4888Q246.13461 400.4888 246.75961 400.02786Q247.38461 399.56693 247.61899 398.7388Q247.74399 398.22318 247.72836 396.58255Q246.63461 397.87943 245.00961 397.87943Q242.97836 397.87943 241.86118 396.41068Q240.74399 394.94193 240.74399 392.89505Q240.74399 391.4888 241.25961 390.2935Q241.77524 389.09818 242.74399 388.44974Q243.71274 387.8013 245.00961 387.8013Q246.75961 387.8013 247.88461 389.20755L247.88461 388.02005L249.43149 388.02005L249.43149 396.53568Q249.43149 398.84818 248.96274 399.8091Q248.49399 400.77005 247.47836 401.32474Q246.46274 401.87943 244.97836 401.87943Q243.21274 401.87943 242.1268 401.08255Q241.04086 400.28568 241.08774 398.69193ZM242.46274 392.77005Q242.46274 394.72318 243.23618 395.6138Q244.00961 396.50443 245.16586 396.50443Q246.30649 396.50443 247.08774 395.6138Q247.86899 394.72318 247.86899 392.83255Q247.86899 391.02005 247.0643 390.106Q246.25961 389.19193 245.13461 389.19193Q244.02524 389.19193 243.24399 390.09036Q242.46274 390.9888 242.46274 392.77005ZM251.13461 392.95755Q251.13461 390.22318 252.66586 388.89505Q253.93149 387.8013 255.75961 387.8013Q257.79086 387.8013 259.07993 389.13724Q260.369 390.47318 260.369 392.81693Q260.369 394.72318 259.79868 395.8091Q259.22836 396.89505 258.14243 397.4966Q257.0565 398.09818 255.75961 398.09818Q253.69711 398.09818 252.41586 396.77005Q251.13461 395.44193 251.13461 392.95755ZM252.85336 392.95755Q252.85336 394.84818 253.68149 395.78568Q254.50961 396.72318 255.75961 396.72318Q257.0096 396.72318 257.82993 395.77786Q258.65024 394.83255 258.65024 392.89505Q258.65024 391.06693 257.8221 390.12943Q256.994 389.19193 255.75961 389.19193Q254.50961 389.19193 253.68149 390.12943Q252.85336 391.06693 252.85336 392.95755ZM262.119 397.87943L262.119 388.02005L263.619 388.02005L263.619 389.52005Q264.1971 388.47318 264.6815 388.13724Q265.16586 387.8013 265.7596 387.8013Q266.60336 387.8013 267.47836 388.34818L266.90024 389.89505Q266.29086 389.53568 265.66586 389.53568Q265.119 389.53568 264.6893 389.8638Q264.2596 390.19193 264.0721 390.77005Q263.79086 391.66068 263.79086 392.72318L263.79086 397.87943L262.119 397.87943ZM268.369 386.19193L268.369 384.28568L270.04086 384.28568L270.04086 386.19193L268.369 386.19193ZM268.369 397.87943L268.369 388.02005L270.04086 388.02005L270.04086 397.87943L268.369 397.87943ZM278.9315 394.27005L280.5721 394.4888Q280.3065 396.1763 279.1971 397.13724Q278.08774 398.09818 276.46274 398.09818Q274.4471 398.09818 273.22055 396.77786Q271.994 395.45755 271.994 392.9888Q271.994 391.39505 272.51743 390.19974Q273.04086 389.00443 274.1268 388.40286Q275.21274 387.8013 276.47836 387.8013Q278.08774 387.8013 279.10336 388.6138Q280.119 389.4263 280.41586 390.9263L278.79086 391.1763Q278.5565 390.1763 277.96274 389.6763Q277.369 389.1763 276.54086 389.1763Q275.27524 389.1763 274.48618 390.08255Q273.6971 390.9888 273.6971 392.94193Q273.6971 394.9263 274.46274 395.82474Q275.22836 396.72318 276.4471 396.72318Q277.4315 396.72318 278.08774 396.1216Q278.744 395.52005 278.9315 394.27005ZM288.2596 396.66068Q287.3221 397.45755 286.46274 397.77786Q285.60336 398.09818 284.619 398.09818Q283.0096 398.09818 282.1346 397.3091Q281.2596 396.52005 281.2596 395.28568Q281.2596 394.5513 281.58774 393.95755Q281.91586 393.3638 282.4471 393.00443Q282.97836 392.64505 283.65024 392.45755Q284.15024 392.31693 285.1346 392.20755Q287.16586 391.95755 288.119 391.62943Q288.119 391.28568 288.119 391.19193Q288.119 390.1763 287.65024 389.75443Q287.0096 389.19193 285.744 389.19193Q284.5721 389.19193 284.0096 389.59818Q283.4471 390.00443 283.1815 391.06693L281.54086 390.83255Q281.77524 389.78568 282.28305 389.14505Q282.79086 388.50443 283.7518 388.15286Q284.71274 387.8013 285.994 387.8013Q287.2596 387.8013 288.04086 388.09818Q288.8221 388.39505 289.1971 388.84818Q289.5721 389.3013 289.71274 389.9888Q289.8065 390.41068 289.8065 391.52005L289.8065 393.75443Q289.8065 396.08255 289.90805 396.69974Q290.0096 397.31693 290.33774 397.87943L288.58774 397.87943Q288.3221 397.3638 288.2596 396.66068ZM288.119 392.94193Q287.21274 393.3013 285.3846 393.56693Q284.35336 393.70755 283.9315 393.89505Q283.5096 394.08255 283.27524 394.44193Q283.04086 394.8013 283.04086 395.2388Q283.04086 395.91068 283.54868 396.356Q284.0565 396.8013 285.02524 396.8013Q285.994 396.8013 286.744 396.3716Q287.494 395.94193 287.85336 395.22318Q288.119 394.64505 288.119 393.5513L288.119 392.94193ZM292.16586 397.87943L292.16586 384.28568L293.83774 384.28568L293.83774 397.87943L292.16586 397.87943ZM301.66586 397.87943L301.66586 384.28568L303.46274 384.28568L303.46274 396.27005L310.16586 396.27005L310.16586 397.87943L301.66586 397.87943ZM318.33774 396.66068Q317.40024 397.45755 316.54086 397.77786Q315.6815 398.09818 314.6971 398.09818Q313.08774 398.09818 312.21274 397.3091Q311.33774 396.52005 311.33774 395.28568Q311.33774 394.5513 311.66586 393.95755Q311.994 393.3638 312.52524 393.00443Q313.0565 392.64505 313.72836 392.45755Q314.22836 392.31693 315.21274 392.20755Q317.244 391.95755 318.1971 391.62943Q318.1971 391.28568 318.1971 391.19193Q318.1971 390.1763 317.72836 389.75443Q317.08774 389.19193 315.8221 389.19193Q314.65024 389.19193 314.08774 389.59818Q313.52524 390.00443 313.2596 391.06693L311.619 390.83255Q311.85336 389.78568 312.36118 389.14505Q312.869 388.50443 313.82993 388.15286Q314.79086 387.8013 316.0721 387.8013Q317.33774 387.8013 318.119 388.09818Q318.90024 388.39505 319.27524 388.84818Q319.65024 389.3013 319.79086 389.9888Q319.8846 390.41068 319.8846 391.52005L319.8846 393.75443Q319.8846 396.08255 319.98618 396.69974Q320.08774 397.31693 320.41586 397.87943L318.66586 397.87943Q318.40024 397.3638 318.33774 396.66068ZM318.1971 392.94193Q317.29086 393.3013 315.46274 393.56693Q314.4315 393.70755 314.0096 393.89505Q313.58774 394.08255 313.35336 394.44193Q313.119 394.8013 313.119 395.2388Q313.119 395.91068 313.6268 396.356Q314.1346 396.8013 315.10336 396.8013Q316.0721 396.8013 316.8221 396.3716Q317.5721 395.94193 317.9315 395.22318Q318.1971 394.64505 318.1971 393.5513L318.1971 392.94193ZM322.1971 401.6763L322.02524 400.1138Q322.5721 400.25443 322.97836 400.25443Q323.52524 400.25443 323.86118 400.06693Q324.1971 399.87943 324.41586 399.5513Q324.5721 399.3013 324.91586 398.3013Q324.96274 398.16068 325.0721 397.89505L321.33774 388.02005L323.1346 388.02005L325.1815 393.7388Q325.58774 394.81693 325.90024 396.02005Q326.1815 394.8638 326.58774 393.77005L328.6815 388.02005L330.35336 388.02005L326.60336 398.0513Q326.0096 399.6763 325.66586 400.28568Q325.22836 401.1138 324.65024 401.4966Q324.0721 401.87943 323.27524 401.87943Q322.79086 401.87943 322.1971 401.6763ZM338.35336 394.70755L340.0721 394.9263Q339.66586 396.4263 338.5643 397.26224Q337.46274 398.09818 335.744 398.09818Q333.58774 398.09818 332.3221 396.77005Q331.0565 395.44193 331.0565 393.03568Q331.0565 390.5513 332.32993 389.1763Q333.60336 387.8013 335.65024 387.8013Q337.6346 387.8013 338.8846 389.14505Q340.1346 390.4888 340.1346 392.94193Q340.1346 393.08255 340.119 393.37943L332.77524 393.37943Q332.869 395.00443 333.6971 395.8638Q334.52524 396.72318 335.7596 396.72318Q336.66586 396.72318 337.3143 396.2466Q337.96274 395.77005 338.35336 394.70755ZM332.869 392.00443L338.369 392.00443Q338.2596 390.77005 337.744 390.14505Q336.9471 389.1763 335.66586 389.1763Q334.52524 389.1763 333.73618 389.94974Q332.9471 390.72318 332.869 392.00443ZM341.96274 397.87943L341.96274 388.02005L343.46274 388.02005L343.46274 389.52005Q344.04086 388.47318 344.52524 388.13724Q345.0096 387.8013 345.60336 387.8013Q346.4471 387.8013 347.3221 388.34818L346.744 389.89505Q346.1346 389.53568 345.5096 389.53568Q344.96274 389.53568 344.53305 389.8638Q344.10336 390.19193 343.91586 390.77005Q343.6346 391.66068 343.6346 392.72318L343.6346 397.87943L341.96274 397.87943Z" fill-rule="nonzero" fill="#000000"></path><path d="M408.063 359.3809L408.063 359.3809C408.063 350.54416 415.2266 343.38058 424.06332 343.38058L614.3304 343.38058C618.5739 343.38058 622.6437 345.0663 625.64435 348.06696C628.64496 351.0676 630.3307 355.13736 630.3307 359.3809L630.3307 423.38025C630.3307 432.21698 623.1671 439.38058 614.3304 439.38058L424.06332 439.38058C415.2266 439.38058 408.063 432.21698 408.063 423.38025Z" fill-rule="nonzero" fill="#cfe2f3" stroke="#073763" stroke-width="2.0" stroke-linejoin="round" stroke-linecap="butt"></path><path d="M471.40558 397.87943L471.40558 384.28568L476.53058 384.28568Q477.88995 384.28568 478.6087 384.41068Q479.6087 384.58255 480.28058 385.0513Q480.95245 385.52005 481.36652 386.3638Q481.78058 387.20755 481.78058 388.20755Q481.78058 389.94193 480.67902 391.14505Q479.57745 392.34818 476.68683 392.34818L473.20245 392.34818L473.20245 397.87943L471.40558 397.87943ZM473.20245 390.7388L476.71808 390.7388Q478.46808 390.7388 479.19464 390.09036Q479.9212 389.44193 479.9212 388.27005Q479.9212 387.41068 479.49152 386.8013Q479.06183 386.19193 478.3587 386.00443Q477.90558 385.87943 476.68683 385.87943L473.20245 385.87943L473.20245 390.7388ZM483.59308 397.87943L483.59308 384.28568L485.26495 384.28568L485.26495 397.87943L483.59308 397.87943ZM494.20245 396.66068Q493.26495 397.45755 492.40558 397.77786Q491.5462 398.09818 490.56183 398.09818Q488.95245 398.09818 488.07745 397.3091Q487.20245 396.52005 487.20245 395.28568Q487.20245 394.5513 487.53058 393.95755Q487.8587 393.3638 488.38995 393.00443Q488.9212 392.64505 489.59308 392.45755Q490.09308 392.31693 491.07745 392.20755Q493.1087 391.95755 494.06183 391.62943Q494.06183 391.28568 494.06183 391.19193Q494.06183 390.1763 493.59308 389.75443Q492.95245 389.19193 491.68683 389.19193Q490.51495 389.19193 489.95245 389.59818Q489.38995 390.00443 489.12433 391.06693L487.4837 390.83255Q487.71808 389.78568 488.2259 389.14505Q488.7337 388.50443 489.69464 388.15286Q490.65558 387.8013 491.93683 387.8013Q493.20245 387.8013 493.9837 388.09818Q494.76495 388.39505 495.13995 388.84818Q495.51495 389.3013 495.65558 389.9888Q495.74933 390.41068 495.74933 391.52005L495.74933 393.75443Q495.74933 396.08255 495.8509 396.69974Q495.95245 397.31693 496.28058 397.87943L494.53058 397.87943Q494.26495 397.3638 494.20245 396.66068ZM494.06183 392.94193Q493.15558 393.3013 491.32745 393.56693Q490.2962 393.70755 489.87433 393.89505Q489.45245 394.08255 489.21808 394.44193Q488.9837 394.8013 488.9837 395.2388Q488.9837 395.91068 489.49152 396.356Q489.99933 396.8013 490.96808 396.8013Q491.93683 396.8013 492.68683 396.3716Q493.43683 395.94193 493.7962 395.22318Q494.06183 394.64505 494.06183 393.5513L494.06183 392.94193ZM504.57745 394.27005L506.21808 394.4888Q505.95245 396.1763 504.84308 397.13724Q503.7337 398.09818 502.1087 398.09818Q500.09308 398.09818 498.86652 396.77786Q497.63995 395.45755 497.63995 392.9888Q497.63995 391.39505 498.1634 390.19974Q498.68683 389.00443 499.77277 388.40286Q500.8587 387.8013 502.12433 387.8013Q503.7337 387.8013 504.74933 388.6138Q505.76495 389.4263 506.06183 390.9263L504.43683 391.1763Q504.20245 390.1763 503.6087 389.6763Q503.01495 389.1763 502.18683 389.1763Q500.9212 389.1763 500.13214 390.08255Q499.34308 390.9888 499.34308 392.94193Q499.34308 394.9263 500.1087 395.82474Q500.87433 396.72318 502.09308 396.72318Q503.07745 396.72318 503.7337 396.1216Q504.38995 395.52005 504.57745 394.27005ZM514.2181 394.70755L515.9368 394.9263Q515.5306 396.4263 514.429 397.26224Q513.32745 398.09818 511.6087 398.09818Q509.45245 398.09818 508.18683 396.77005Q506.9212 395.44193 506.9212 393.03568Q506.9212 390.5513 508.19464 389.1763Q509.46808 387.8013 511.51495 387.8013Q513.4993 387.8013 514.7493 389.14505Q515.9993 390.4888 515.9993 392.94193Q515.9993 393.08255 515.9837 393.37943L508.63995 393.37943Q508.7337 395.00443 509.56183 395.8638Q510.38995 396.72318 511.62433 396.72318Q512.5306 396.72318 513.179 396.2466Q513.82745 395.77005 514.2181 394.70755ZM508.7337 392.00443L514.2337 392.00443Q514.1243 390.77005 513.6087 390.14505Q512.8118 389.1763 511.53058 389.1763Q510.38995 389.1763 509.6009 389.94974Q508.81183 390.72318 508.7337 392.00443ZM523.1712 397.87943L523.1712 384.28568L524.9681 384.28568L524.9681 396.27005L531.6712 396.27005L531.6712 397.87943L523.1712 397.87943ZM539.8431 396.66068Q538.9056 397.45755 538.0462 397.77786Q537.1868 398.09818 536.20245 398.09818Q534.5931 398.09818 533.7181 397.3091Q532.8431 396.52005 532.8431 395.28568Q532.8431 394.5513 533.1712 393.95755Q533.4993 393.3638 534.0306 393.00443Q534.5618 392.64505 535.2337 392.45755Q535.7337 392.31693 536.7181 392.20755Q538.7493 391.95755 539.70245 391.62943Q539.70245 391.28568 539.70245 391.19193Q539.70245 390.1763 539.2337 389.75443Q538.5931 389.19193 537.32745 389.19193Q536.1556 389.19193 535.5931 389.59818Q535.0306 390.00443 534.76495 391.06693L533.1243 390.83255Q533.3587 389.78568 533.8665 389.14505Q534.3743 388.50443 535.33527 388.15286Q536.2962 387.8013 537.57745 387.8013Q538.8431 387.8013 539.6243 388.09818Q540.4056 388.39505 540.7806 388.84818Q541.1556 389.3013 541.2962 389.9888Q541.38995 390.41068 541.38995 391.52005L541.38995 393.75443Q541.38995 396.08255 541.4915 396.69974Q541.5931 397.31693 541.9212 397.87943L540.1712 397.87943Q539.9056 397.3638 539.8431 396.66068ZM539.70245 392.94193Q538.7962 393.3013 536.9681 393.56693Q535.9368 393.70755 535.51495 393.89505Q535.0931 394.08255 534.8587 394.44193Q534.6243 394.8013 534.6243 395.2388Q534.6243 395.91068 535.13214 396.356Q535.63995 396.8013 536.6087 396.8013Q537.57745 396.8013 538.32745 396.3716Q539.07745 395.94193 539.4368 395.22318Q539.70245 394.64505 539.70245 393.5513L539.70245 392.94193ZM543.70245 401.6763L543.5306 400.1138Q544.07745 400.25443 544.4837 400.25443Q545.0306 400.25443 545.3665 400.06693Q545.70245 399.87943 545.9212 399.5513Q546.07745 399.3013 546.4212 398.3013Q546.4681 398.16068 546.57745 397.89505L542.8431 388.02005L544.63995 388.02005L546.6868 393.7388Q547.0931 394.81693 547.4056 396.02005Q547.6868 394.8638 548.0931 393.77005L550.1868 388.02005L551.8587 388.02005L548.1087 398.0513Q547.51495 399.6763 547.1712 400.28568Q546.7337 401.1138 546.1556 401.4966Q545.57745 401.87943 544.7806 401.87943Q544.2962 401.87943 543.70245 401.6763ZM559.8587 394.70755L561.57745 394.9263Q561.1712 396.4263 560.06964 397.26224Q558.9681 398.09818 557.2493 398.09818Q555.0931 398.09818 553.82745 396.77005Q552.5618 395.44193 552.5618 393.03568Q552.5618 390.5513 553.83527 389.1763Q555.1087 387.8013 557.1556 387.8013Q559.13995 387.8013 560.38995 389.14505Q561.63995 390.4888 561.63995 392.94193Q561.63995 393.08255 561.6243 393.37943L554.2806 393.37943Q554.3743 395.00443 555.20245 395.8638Q556.0306 396.72318 557.26495 396.72318Q558.1712 396.72318 558.81964 396.2466Q559.4681 395.77005 559.8587 394.70755ZM554.3743 392.00443L559.8743 392.00443Q559.76495 390.77005 559.2493 390.14505Q558.45245 389.1763 557.1712 389.1763Q556.0306 389.1763 555.2415 389.94974Q554.45245 390.72318 554.3743 392.00443ZM563.4681 397.87943L563.4681 388.02005L564.9681 388.02005L564.9681 389.52005Q565.5462 388.47318 566.0306 388.13724Q566.51495 387.8013 567.1087 387.8013Q567.95245 387.8013 568.82745 388.34818L568.2493 389.89505Q567.63995 389.53568 567.01495 389.53568Q566.4681 389.53568 566.0384 389.8638Q565.6087 390.19193 565.4212 390.77005Q565.13995 391.66068 565.13995 392.72318L565.13995 397.87943L563.4681 397.87943Z" fill-rule="nonzero" fill="#000000"></path><path d="M155.86613 246.44127L155.86613 246.44127C155.86613 237.60454 163.02972 230.44095 171.86646 230.44095L622.66895 230.44095C626.91254 230.44095 630.98224 232.1267 633.9829 235.12733C636.9835 238.12798 638.6693 242.19772 638.6693 246.44127L638.6693 310.4406C638.6693 319.27734 631.5057 326.44095 622.66895 326.44095L171.86646 326.44095L171.86646 326.44095C163.02972 326.44095 155.86613 319.27734 155.86613 310.4406Z" fill-rule="nonzero" fill="#cfe2f3" stroke="#073763" stroke-width="2.0" stroke-linejoin="round" stroke-linecap="butt"></path><path d="M335.3181 280.17416L337.115 280.6273Q336.5525 282.84604 335.08374 284.0101Q333.615 285.17416 331.49 285.17416Q329.28687 285.17416 327.91187 284.27573Q326.53687 283.3773 325.8181 281.68198Q325.09937 279.98666 325.09937 278.03354Q325.09937 275.90854 325.90405 274.3304Q326.70874 272.7523 328.20874 271.93198Q329.70874 271.11166 331.5056 271.11166Q333.5525 271.11166 334.9431 272.15073Q336.33374 273.1898 336.8806 275.0648L335.115 275.48666Q334.64624 274.0023 333.74 273.3226Q332.83374 272.6429 331.47437 272.6429Q329.91187 272.6429 328.85718 273.3929Q327.8025 274.1429 327.3728 275.41635Q326.9431 276.6898 326.9431 278.03354Q326.9431 279.7679 327.45093 281.05698Q327.95874 282.34604 329.02905 282.98666Q330.09937 283.6273 331.33374 283.6273Q332.84937 283.6273 333.89624 282.7601Q334.9431 281.8929 335.3181 280.17416ZM338.24 280.0179Q338.24 277.28354 339.77124 275.9554Q341.03687 274.86166 342.865 274.86166Q344.89624 274.86166 346.1853 276.1976Q347.47437 277.53354 347.47437 279.8773Q347.47437 281.78354 346.90405 282.86948Q346.33374 283.9554 345.2478 284.55698Q344.16187 285.15854 342.865 285.15854Q340.8025 285.15854 339.52124 283.8304Q338.24 282.5023 338.24 280.0179ZM339.95874 280.0179Q339.95874 281.90854 340.78687 282.84604Q341.615 283.78354 342.865 283.78354Q344.115 283.78354 344.9353 282.83823Q345.7556 281.8929 345.7556 279.9554Q345.7556 278.1273 344.9275 277.1898Q344.09937 276.2523 342.865 276.2523Q341.615 276.2523 340.78687 277.1898Q339.95874 278.1273 339.95874 280.0179ZM349.24 284.9398L349.24 275.0804L350.74 275.0804L350.74 276.48666Q351.83374 274.86166 353.8806 274.86166Q354.77124 274.86166 355.52124 275.18198Q356.27124 275.5023 356.63843 276.02573Q357.0056 276.54916 357.16187 277.2523Q357.2556 277.72104 357.2556 278.8773L357.2556 284.9398L355.58374 284.9398L355.58374 278.9398Q355.58374 277.92416 355.38843 277.41635Q355.1931 276.90854 354.6931 276.61166Q354.1931 276.3148 353.52124 276.3148Q352.45874 276.3148 351.6853 276.98666Q350.91187 277.65854 350.91187 279.5648L350.91187 284.9398L349.24 284.9398ZM366.0525 281.3304L367.6931 281.54916Q367.4275 283.23666 366.3181 284.1976Q365.20874 285.15854 363.58374 285.15854Q361.5681 285.15854 360.34155 283.83823Q359.115 282.5179 359.115 280.04916Q359.115 278.4554 359.63843 277.2601Q360.16187 276.0648 361.2478 275.46323Q362.33374 274.86166 363.59937 274.86166Q365.20874 274.86166 366.22437 275.67416Q367.24 276.48666 367.53687 277.98666L365.91187 278.23666Q365.6775 277.23666 365.08374 276.73666Q364.49 276.23666 363.66187 276.23666Q362.39624 276.23666 361.60718 277.1429Q360.8181 278.04916 360.8181 280.0023Q360.8181 281.98666 361.58374 282.8851Q362.34937 283.78354 363.5681 283.78354Q364.5525 283.78354 365.20874 283.18198Q365.865 282.5804 366.0525 281.3304ZM375.6931 281.7679L377.41187 281.98666Q377.0056 283.48666 375.90405 284.3226Q374.8025 285.15854 373.08374 285.15854Q370.9275 285.15854 369.66187 283.8304Q368.39624 282.5023 368.39624 280.09604Q368.39624 277.61166 369.66968 276.23666Q370.9431 274.86166 372.99 274.86166Q374.97437 274.86166 376.22437 276.2054Q377.47437 277.54916 377.47437 280.0023Q377.47437 280.1429 377.45874 280.4398L370.115 280.4398Q370.20874 282.0648 371.03687 282.92416Q371.865 283.78354 373.09937 283.78354Q374.0056 283.78354 374.65405 283.30698Q375.3025 282.8304 375.6931 281.7679ZM370.20874 279.0648L375.70874 279.0648Q375.59937 277.8304 375.08374 277.2054Q374.28687 276.23666 373.0056 276.23666Q371.865 276.23666 371.07593 277.0101Q370.28687 277.78354 370.20874 279.0648ZM379.3181 288.72104L379.3181 275.0804L380.84937 275.0804L380.84937 276.36166Q381.3806 275.61166 382.0603 275.23666Q382.74 274.86166 383.6931 274.86166Q384.95874 274.86166 385.9275 275.5101Q386.89624 276.15854 387.38843 277.34604Q387.8806 278.53354 387.8806 279.9398Q387.8806 281.4554 387.33374 282.66635Q386.78687 283.8773 385.7556 284.5179Q384.72437 285.15854 383.58374 285.15854Q382.74 285.15854 382.07593 284.80698Q381.41187 284.4554 380.99 283.92416L380.99 288.72104L379.3181 288.72104ZM380.83374 280.0648Q380.83374 281.97104 381.60718 282.8773Q382.3806 283.78354 383.47437 283.78354Q384.58374 283.78354 385.3728 282.84604Q386.16187 281.90854 386.16187 279.92416Q386.16187 278.04916 385.38843 277.11166Q384.615 276.17416 383.53687 276.17416Q382.47437 276.17416 381.65405 277.17416Q380.83374 278.17416 380.83374 280.0648ZM393.34937 283.4398L393.58374 284.92416Q392.8806 285.0648 392.3181 285.0648Q391.41187 285.0648 390.91187 284.77573Q390.41187 284.48666 390.20874 284.02573Q390.0056 283.5648 390.0056 282.04916L390.0056 276.3929L388.77124 276.3929L388.77124 275.0804L390.0056 275.0804L390.0056 272.6429L391.66187 271.6429L391.66187 275.0804L393.34937 275.0804L393.34937 276.3929L391.66187 276.3929L391.66187 282.1429Q391.66187 282.86166 391.7478 283.0648Q391.83374 283.2679 392.03687 283.3929Q392.24 283.5179 392.615 283.5179Q392.8806 283.5179 393.34937 283.4398ZM401.33374 284.9398L401.33374 283.48666Q400.1931 285.15854 398.20874 285.15854Q397.34937 285.15854 396.59155 284.8226Q395.83374 284.48666 395.46655 283.98666Q395.09937 283.48666 394.9431 282.7523Q394.84937 282.2523 394.84937 281.1898L394.84937 275.0804L396.52124 275.0804L396.52124 280.54916Q396.52124 281.86166 396.615 282.3148Q396.77124 282.97104 397.28687 283.34604Q397.8025 283.72104 398.5525 283.72104Q399.3025 283.72104 399.95874 283.33823Q400.615 282.9554 400.88843 282.29135Q401.16187 281.6273 401.16187 280.36166L401.16187 275.0804L402.83374 275.0804L402.83374 284.9398L401.33374 284.9398ZM411.6931 283.72104Q410.7556 284.5179 409.89624 284.83823Q409.03687 285.15854 408.0525 285.15854Q406.4431 285.15854 405.5681 284.36948Q404.6931 283.5804 404.6931 282.34604Q404.6931 281.61166 405.02124 281.0179Q405.34937 280.42416 405.8806 280.0648Q406.41187 279.7054 407.08374 279.5179Q407.58374 279.3773 408.5681 279.2679Q410.59937 279.0179 411.5525 278.6898Q411.5525 278.34604 411.5525 278.2523Q411.5525 277.23666 411.08374 276.8148Q410.4431 276.2523 409.1775 276.2523Q408.0056 276.2523 407.4431 276.65854Q406.8806 277.0648 406.615 278.1273L404.97437 277.8929Q405.20874 276.84604 405.71655 276.2054Q406.22437 275.5648 407.1853 275.21323Q408.14624 274.86166 409.4275 274.86166Q410.6931 274.86166 411.47437 275.15854Q412.2556 275.4554 412.6306 275.90854Q413.0056 276.36166 413.14624 277.04916Q413.24 277.47104 413.24 278.5804L413.24 280.8148Q413.24 283.1429 413.34155 283.7601Q413.4431 284.3773 413.77124 284.9398L412.02124 284.9398Q411.7556 284.42416 411.6931 283.72104ZM411.5525 280.0023Q410.64624 280.36166 408.8181 280.6273Q407.78687 280.7679 407.365 280.9554Q406.9431 281.1429 406.70874 281.5023Q406.47437 281.86166 406.47437 282.29916Q406.47437 282.97104 406.98218 283.41635Q407.49 283.86166 408.45874 283.86166Q409.4275 283.86166 410.1775 283.43198Q410.9275 283.0023 411.28687 282.28354Q411.5525 281.7054 411.5525 280.61166L411.5525 280.0023ZM415.59937 284.9398L415.59937 271.34604L417.27124 271.34604L417.27124 284.9398L415.59937 284.9398ZM425.09937 284.9398L425.09937 271.34604L426.89624 271.34604L426.89624 283.3304L433.59937 283.3304L433.59937 284.9398L425.09937 284.9398ZM441.77124 283.72104Q440.83374 284.5179 439.97437 284.83823Q439.115 285.15854 438.1306 285.15854Q436.52124 285.15854 435.64624 284.36948Q434.77124 283.5804 434.77124 282.34604Q434.77124 281.61166 435.09937 281.0179Q435.4275 280.42416 435.95874 280.0648Q436.49 279.7054 437.16187 279.5179Q437.66187 279.3773 438.64624 279.2679Q440.6775 279.0179 441.6306 278.6898Q441.6306 278.34604 441.6306 278.2523Q441.6306 277.23666 441.16187 276.8148Q440.52124 276.2523 439.2556 276.2523Q438.08374 276.2523 437.52124 276.65854Q436.95874 277.0648 436.6931 278.1273L435.0525 277.8929Q435.28687 276.84604 435.79468 276.2054Q436.3025 275.5648 437.26343 275.21323Q438.22437 274.86166 439.5056 274.86166Q440.77124 274.86166 441.5525 275.15854Q442.33374 275.4554 442.70874 275.90854Q443.08374 276.36166 443.22437 277.04916Q443.3181 277.47104 443.3181 278.5804L443.3181 280.8148Q443.3181 283.1429 443.41968 283.7601Q443.52124 284.3773 443.84937 284.9398L442.09937 284.9398Q441.83374 284.42416 441.77124 283.72104ZM441.6306 280.0023Q440.72437 280.36166 438.89624 280.6273Q437.865 280.7679 437.4431 280.9554Q437.02124 281.1429 436.78687 281.5023Q436.5525 281.86166 436.5525 282.29916Q436.5525 282.97104 437.0603 283.41635Q437.5681 283.86166 438.53687 283.86166Q439.5056 283.86166 440.2556 283.43198Q441.0056 283.0023 441.365 282.28354Q441.6306 281.7054 441.6306 280.61166L441.6306 280.0023ZM445.6306 288.73666L445.45874 287.17416Q446.0056 287.3148 446.41187 287.3148Q446.95874 287.3148 447.29468 287.1273Q447.6306 286.9398 447.84937 286.61166Q448.0056 286.36166 448.34937 285.36166Q448.39624 285.22104 448.5056 284.9554L444.77124 275.0804L446.5681 275.0804L448.615 280.79916Q449.02124 281.8773 449.33374 283.0804Q449.615 281.92416 450.02124 280.8304L452.115 275.0804L453.78687 275.0804L450.03687 285.11166Q449.4431 286.73666 449.09937 287.34604Q448.66187 288.17416 448.08374 288.55698Q447.5056 288.9398 446.70874 288.9398Q446.22437 288.9398 445.6306 288.73666ZM461.78687 281.7679L463.5056 281.98666Q463.09937 283.48666 461.9978 284.3226Q460.89624 285.15854 459.1775 285.15854Q457.02124 285.15854 455.7556 283.8304Q454.49 282.5023 454.49 280.09604Q454.49 277.61166 455.76343 276.23666Q457.03687 274.86166 459.08374 274.86166Q461.0681 274.86166 462.3181 276.2054Q463.5681 277.54916 463.5681 280.0023Q463.5681 280.1429 463.5525 280.4398L456.20874 280.4398Q456.3025 282.0648 457.1306 282.92416Q457.95874 283.78354 459.1931 283.78354Q460.09937 283.78354 460.7478 283.30698Q461.39624 282.8304 461.78687 281.7679ZM456.3025 279.0648L461.8025 279.0648Q461.6931 277.8304 461.1775 277.2054Q460.3806 276.23666 459.09937 276.23666Q457.95874 276.23666 457.16968 277.0101Q456.3806 277.78354 456.3025 279.0648ZM465.39624 284.9398L465.39624 275.0804L466.89624 275.0804L466.89624 276.5804Q467.47437 275.53354 467.95874 275.1976Q468.4431 274.86166 469.03687 274.86166Q469.8806 274.86166 470.7556 275.40854L470.1775 276.9554Q469.5681 276.59604 468.9431 276.59604Q468.39624 276.59604 467.96655 276.92416Q467.53687 277.2523 467.34937 277.8304Q467.0681 278.72104 467.0681 279.78354L467.0681 284.9398L465.39624 284.9398Z" fill-rule="nonzero" fill="#000000"></path></svg>

